<?xml version="1.0" encoding="UTF-8"?>
<svg width="200px" height="200px" viewBox="0 0 200 200" xmlns="http://www.w3.org/2000/svg" xmlns:xlink="http://www.w3.org/1999/xlink" version="1.1">
 <g id="Forme-184">
  <path id="Tracé" d="M106.331 85.131 C106.339 84.18 106.392 83.118 107.078 82.459 107.736 81.828 108.745 81.789 109.656 81.787 111.088 81.784 112.519 81.782 113.951 81.779 114.712 81.777 115.492 81.779 116.204 82.047 116.917 82.314 117.557 82.908 117.655 83.663 117.941 85.874 117.982 88.117 117.777 90.338 117.719 90.961 117.63 91.616 117.253 92.116 116.592 92.995 115.329 93.083 114.229 93.092 112.908 93.104 111.587 93.116 110.266 93.128 109.159 93.138 107.925 93.1 107.135 92.323 106.33 91.531 106.288 90.268 106.297 89.139 106.309 87.803 106.32 86.467 106.331 85.131 Z" fill="#8c949f" fill-opacity="1" stroke="none"/>
  <path id="Tracé-1" d="M30.511 165.496 C23.81 159.481 23.341 149.323 23.358 140.318 23.409 113.605 23.459 86.891 23.51 60.178 23.526 51.456 24.051 41.571 30.679 35.901 36.124 31.242 43.959 31.008 51.125 31.007 83.258 31.005 115.392 31.002 147.526 31 155.32 30.999 163.961 31.323 169.567 36.737 175.427 42.396 175.813 51.499 175.815 59.645 175.82 87.292 175.825 114.939 175.83 142.586 175.831 150.06 175.572 158.262 170.622 163.863 164.837 170.41 154.971 170.902 146.234 170.91 115.091 170.94 83.949 170.97 52.806 171 44.966 171.007 36.346 170.732 30.511 165.496 M39.379 69.424 C37.337 71.729 37.229 75.108 37.229 78.188 37.226 100.657 37.223 123.127 37.22 145.596 37.219 148.734 37.331 152.183 39.425 154.521 41.833 157.208 45.903 157.403 49.511 157.403 82.877 157.405 116.242 157.406 149.607 157.408 153.41 157.408 157.747 157.168 160.15 154.221 162.004 151.948 162.092 148.757 162.092 145.824 162.096 123.212 162.1 100.6 162.104 77.989 162.104 75.158 162.029 72.095 160.29 69.862 157.9 66.791 153.437 66.527 149.546 66.527 116.167 66.53 82.789 66.533 49.411 66.536 45.819 66.537 41.762 66.735 39.379 69.424 Z" fill="#8c949f" fill-opacity="1" stroke="none"/>
  <path id="Tracé-2" d="M93.014 85.656 C93.013 86.911 93.011 88.167 93.01 89.423 93.009 90.392 92.974 91.455 92.331 92.18 91.585 93.023 90.317 93.091 89.192 93.097 87.883 93.105 86.575 93.112 85.267 93.12 84.241 93.125 83.107 93.091 82.355 92.393 81.541 91.636 81.48 90.39 81.476 89.278 81.471 88.111 81.466 86.943 81.461 85.776 81.455 84.422 81.586 82.814 82.756 82.132 83.347 81.787 84.069 81.779 84.753 81.781 86.289 81.784 87.825 81.787 89.361 81.79 90.316 81.792 91.362 81.826 92.083 82.452 92.951 83.206 93.015 84.507 93.014 85.656 Z" fill="#8c949f" fill-opacity="1" stroke="none"/>
  <path id="Tracé-3" d="M116.311 130.985 C116.98 131.247 117.437 131.895 117.647 132.581 117.857 133.267 117.857 133.998 117.856 134.716 117.853 135.884 117.85 137.053 117.847 138.221 117.844 139.447 117.739 140.876 116.723 141.562 116.242 141.887 115.642 141.973 115.064 142.033 113.152 142.23 111.221 142.24 109.308 142.062 108.486 141.985 107.599 141.842 107.026 141.247 106.375 140.57 106.333 139.53 106.33 138.591 106.324 137.162 106.319 135.733 106.313 134.305 106.309 133.19 106.392 131.896 107.303 131.253 107.885 130.842 108.649 130.826 109.361 130.825 111.237 130.824 113.112 130.822 114.987 130.82 115.435 130.82 115.894 130.822 116.311 130.985 Z" fill="#8c949f" fill-opacity="1" stroke="none"/>
  <path id="Tracé-4" d="M81.467 138.335 C81.47 136.981 81.474 135.628 81.478 134.274 81.48 133.257 81.538 132.112 82.294 131.432 82.962 130.831 83.952 130.803 84.851 130.809 86.526 130.819 88.201 130.829 89.876 130.839 90.525 130.843 91.207 130.856 91.769 131.181 92.904 131.84 93.031 133.401 93.023 134.714 93.016 135.855 93.01 136.995 93.003 138.136 92.998 138.906 92.991 139.694 92.719 140.415 92.448 141.135 91.854 141.785 91.092 141.898 88.87 142.227 86.606 142.28 84.371 142.056 83.663 141.985 82.915 141.868 82.371 141.409 81.527 140.696 81.464 139.44 81.467 138.335 Z" fill="#8c949f" fill-opacity="1" stroke="none"/>
  <path id="Tracé-5" d="M142.28 91.875 C141.554 93.015 139.964 93.128 138.613 93.119 137.341 93.11 136.07 93.101 134.798 93.093 133.824 93.086 132.752 93.042 132.037 92.38 131.247 91.648 131.187 90.439 131.182 89.362 131.176 88.12 131.171 86.877 131.165 85.635 131.16 84.48 131.223 83.166 132.104 82.419 132.815 81.816 133.834 81.787 134.766 81.787 136.266 81.788 137.766 81.788 139.267 81.789 140.023 81.789 140.826 81.802 141.466 82.205 142.627 82.935 142.744 84.552 142.734 85.923 142.725 87.183 142.715 88.442 142.706 89.701 142.701 90.45 142.683 91.244 142.28 91.875 Z" fill="#8c949f" fill-opacity="1" stroke="none"/>
  <path id="Tracé-6" d="M68.125 133.772 C68.236 135.321 68.198 136.878 68.16 138.431 68.129 139.666 67.95 141.147 66.839 141.687 66.546 141.829 66.22 141.884 65.898 141.931 63.65 142.259 61.358 142.285 59.103 142.009 58.746 141.966 58.384 141.913 58.059 141.76 56.83 141.181 56.649 139.537 56.64 138.178 56.632 137.069 56.624 135.959 56.617 134.85 56.612 134.142 56.609 133.423 56.799 132.741 56.99 132.06 57.403 131.408 58.038 131.093 58.557 130.836 59.16 130.829 59.74 130.827 61.419 130.823 63.098 130.818 64.777 130.814 65.663 130.811 66.639 130.842 67.295 131.438 67.921 132.008 68.064 132.927 68.125 133.772 Z" fill="#8c949f" fill-opacity="1" stroke="none"/>
  <path id="Tracé-7" d="M107.395 106.801 C107.973 106.423 108.708 106.41 109.399 106.409 111.137 106.409 112.875 106.408 114.613 106.407 115.327 106.407 116.085 106.419 116.685 106.803 117.74 107.478 117.854 108.946 117.857 110.197 117.859 111.276 117.861 112.355 117.863 113.434 117.866 114.836 117.72 116.509 116.496 117.193 115.911 117.521 115.208 117.531 114.538 117.532 112.952 117.536 111.365 117.54 109.779 117.544 108.899 117.546 107.94 117.522 107.258 116.965 106.381 116.248 106.308 114.956 106.306 113.823 106.304 112.558 106.303 111.293 106.301 110.028 106.299 108.841 106.401 107.45 107.395 106.801 Z" fill="#8c949f" fill-opacity="1" stroke="none"/>
  <path id="Tracé-8" d="M84.447 106.416 C86.124 106.414 87.801 106.412 89.477 106.409 90.537 106.408 91.744 106.472 92.419 107.288 92.939 107.917 92.974 108.802 92.984 109.618 93 110.886 93.016 112.155 93.032 113.424 93.048 114.707 92.974 116.188 91.956 116.969 91.238 117.519 90.262 117.543 89.358 117.543 87.904 117.542 86.451 117.542 84.997 117.542 84.107 117.542 83.138 117.516 82.448 116.953 81.552 116.223 81.479 114.905 81.479 113.75 81.48 112.472 81.48 111.194 81.48 109.916 81.48 108.757 81.586 107.394 82.567 106.774 83.114 106.429 83.8 106.417 84.447 106.416 Z" fill="#8c949f" fill-opacity="1" stroke="none"/>
  <path id="Tracé-9" d="M132.482 117.178 C131.32 116.502 131.182 114.909 131.18 113.565 131.178 112.397 131.176 111.229 131.174 110.062 131.171 108.86 131.274 107.453 132.28 106.795 132.869 106.41 133.619 106.399 134.323 106.401 L139.139 106.415 C139.881 106.417 140.645 106.423 141.331 106.705 142.017 106.987 142.616 107.615 142.631 108.357 142.666 110.038 142.701 111.718 142.735 113.399 142.762 114.681 142.7 116.161 141.688 116.95 140.966 117.513 139.975 117.536 139.059 117.535 137.526 117.533 135.992 117.531 134.459 117.53 133.781 117.529 133.067 117.519 132.482 117.178 Z" fill="#8c949f" fill-opacity="1" stroke="none"/>
  <path id="Tracé-10" d="M56.644 113.588 C56.64 112.443 56.637 111.297 56.633 110.152 56.63 109.469 56.63 108.774 56.826 108.121 57.023 107.467 57.45 106.848 58.08 106.587 58.502 106.412 58.972 106.411 59.427 106.412 61.294 106.416 63.16 106.42 65.027 106.424 65.756 106.426 66.538 106.444 67.13 106.869 67.991 107.487 68.118 108.697 68.151 109.757 68.191 111.074 68.206 112.391 68.194 113.709 68.184 114.869 68.082 116.183 67.183 116.917 66.468 117.5 65.465 117.528 64.543 117.528 63.006 117.529 61.469 117.53 59.933 117.531 59.248 117.531 58.525 117.522 57.934 117.174 56.786 116.498 56.649 114.921 56.644 113.588 Z" fill="#8c949f" fill-opacity="1" stroke="none"/>
 </g>
</svg>
