<?xml version="1.0" encoding="UTF-8"?>
<svg width="200px" height="200px" viewBox="0 0 200 200" xmlns="http://www.w3.org/2000/svg" xmlns:xlink="http://www.w3.org/1999/xlink" version="1.1">
 <g id="Forme-188">
  <path id="Tracé" d="M95.799 131.662 C95.799 133.084 95.852 134.4 95.786 135.709 95.699 137.446 95.177 139.047 93.859 140.264 92.738 141.298 91.358 141.809 89.854 141.942 84.347 142.428 78.827 142.102 73.313 142.129 71.856 142.137 70.359 141.963 68.964 141.306 66.895 140.332 65.97 138.668 65.57 136.5 65.278 134.915 65.394 133.344 65.393 131.771 65.376 101.607 65.375 71.444 65.396 41.281 65.397 39.658 65.708 38.064 66.689 36.679 67.489 35.55 68.625 34.88 69.892 34.524 71.244 34.144 72.657 34.038 74.08 34.048 78.639 34.077 83.198 34.081 87.757 34.044 89.004 34.034 90.207 34.267 91.401 34.516 93.485 34.95 95.264 37.167 95.614 39.287 95.804 40.435 95.792 41.565 95.793 42.703 95.801 72.32 95.799 101.936 95.799 131.662 Z" fill="#5f82fd" fill-opacity="1" stroke="none"/>
  <path id="Tracé-1" d="M104.553 59.882 C104.553 58.861 104.482 57.943 104.568 57.039 104.725 55.404 105.12 53.836 106.409 52.667 107.629 51.561 109.077 50.931 110.713 50.923 116.729 50.89 122.745 50.871 128.761 50.927 131.39 50.952 133.941 52.506 134.553 55.524 134.755 56.519 134.975 57.497 134.975 58.519 134.971 83.969 134.975 109.42 134.965 134.87 134.964 136.814 134.45 138.651 133.143 140.117 132.423 140.924 131.427 141.522 130.323 141.71 129.011 141.934 127.678 142.129 126.351 142.146 122.085 142.2 117.819 142.164 113.553 142.167 111.935 142.168 110.35 142.013 108.789 141.523 106.432 140.783 105.191 139.197 104.738 136.806 104.582 135.983 104.56 135.184 104.559 134.374 104.552 109.58 104.553 84.786 104.553 59.882 Z" fill="#5f82fd" fill-opacity="1" stroke="none"/>
  <path id="Tracé-2" d="M26.427 83.736 C26.427 80.089 26.43 76.553 26.426 73.016 26.424 71.206 27.174 69.702 28.451 68.505 29.554 67.471 30.959 66.909 32.474 66.9 38.453 66.863 44.437 66.758 50.411 66.937 53.534 67.031 55.449 68.679 56.385 71.652 56.613 72.376 56.617 73.189 56.618 73.961 56.629 94.379 56.625 114.796 56.63 135.214 56.63 137.007 56.126 138.644 54.946 139.977 54.172 140.852 53.141 141.503 51.963 141.709 50.652 141.939 49.318 142.127 47.991 142.146 44.017 142.202 40.043 142.184 36.069 142.156 34.676 142.146 33.281 142.066 31.895 141.934 30.461 141.797 29.132 141.21 28.144 140.213 27.01 139.069 26.429 137.567 26.429 135.91 26.426 118.555 26.427 101.2 26.427 83.736 Z" fill="#5f82fd" fill-opacity="1" stroke="none"/>
  <path id="Tracé-3" d="M73.696 153.327 C107.245 153.327 140.683 153.322 174.122 153.336 176.777 153.337 178.712 154.626 180.063 156.906 181.501 159.336 181.191 161.742 179.762 163.931 178.833 165.354 177.395 166.371 175.58 166.706 174.946 166.823 174.329 166.893 173.696 166.893 124.541 166.895 75.385 166.895 26.23 166.893 23.322 166.893 20.614 164.914 19.704 162.025 19.133 160.211 19.357 158.422 20.324 156.829 21.356 155.129 22.79 153.875 24.881 153.508 25.366 153.423 25.841 153.33 26.329 153.33 42.081 153.326 57.834 153.327 73.696 153.327 Z" fill="#5f82fd" fill-opacity="1" stroke="none"/>
  <path id="Tracé-4" d="M143.725 96.209 C143.725 93.73 143.721 91.361 143.728 88.992 143.73 88.049 144.018 87.172 144.332 86.29 144.999 84.416 146.468 83.457 148.227 82.881 149.039 82.615 149.922 82.448 150.773 82.442 156.278 82.404 161.782 82.407 167.287 82.431 169.057 82.439 170.66 83.062 172.028 84.163 172.934 84.893 173.405 85.967 173.686 87.072 173.867 87.78 173.915 88.537 173.916 89.273 173.928 104.802 173.92 120.331 173.93 135.861 173.932 138.724 171.808 141.36 169.166 141.726 168.025 141.884 166.882 142.134 165.738 142.146 161.073 142.194 156.406 142.213 151.741 142.135 150.481 142.114 149.203 141.967 147.957 141.534 145.647 140.732 144.364 139.199 143.91 136.808 143.754 135.986 143.732 135.187 143.732 134.377 143.723 121.691 143.725 109.005 143.725 96.209 Z" fill="#5f82fd" fill-opacity="1" stroke="none"/>
 </g>
</svg>
