<svg width="200px" height="200px" viewBox="0 0 200 200" xmlns="http://www.w3.org/2000/svg" xmlns:xlink="http://www.w3.org/1999/xlink" version="1.1">
 <g id="Forme-175">
  <path id="Tracé" d="M72.594 121.904 C72.604 127.645 73.178 134.435 78.113 137.368 73.024 142.099 67.935 146.83 62.846 151.561 61.294 153.004 59.677 154.487 57.671 155.169 55.664 155.852 53.146 155.511 51.888 153.805 50.953 152.538 50.901 150.847 50.886 149.272 50.835 144.085 50.785 138.898 50.734 133.71 42.312 134.173 32.802 134.246 26.806 128.313 21.13 122.697 20.767 113.799 20.766 105.814 20.763 91.763 20.76 77.712 20.756 63.661 20.755 56.616 21 48.885 25.667 43.608 31.136 37.422 40.468 36.983 48.724 37 70.282 37.046 91.839 37.092 113.397 37.138 118.363 37.149 123.494 37.193 128.04 39.192 134.935 42.224 139.465 49.929 138.761 57.429 125.902 57.406 113.044 57.382 100.186 57.359 90.001 57.34 79.09 62.041 74.886 71.318 72.559 76.454 72.528 82.292 72.537 87.93 72.556 99.255 72.575 110.58 72.594 121.904 Z" fill="#8c949f" fill-opacity="1" stroke="none"/>
  <path id="Tracé-1" d="M150.543 65.07 C154.76 65.058 159.017 65.051 163.133 65.962 167.25 66.872 171.273 68.792 173.963 72.039 178.201 77.157 178.384 84.402 178.363 91.047 178.337 99.329 178.31 107.611 178.284 115.893 178.264 122.264 178.079 129.143 174.202 134.199 169.174 140.758 159.814 141.897 151.554 141.636 151.548 146.616 151.541 151.595 151.534 156.575 151.532 158.467 151.457 160.553 150.171 161.94 148.827 163.391 146.515 163.57 144.655 162.898 142.794 162.226 141.278 160.866 139.813 159.537 133.47 153.785 127.127 148.032 120.783 142.279 120.016 141.584 118.895 141.482 117.86 141.446 111.692 141.227 105.495 142.06 99.358 141.416 93.22 140.772 86.844 138.322 83.478 133.15 80.519 128.603 80.392 122.84 80.361 117.415 80.311 108.801 80.262 100.187 80.212 91.573 80.17 84.16 80.463 75.889 85.724 70.667 90.88 65.549 98.952 65.212 106.217 65.192 120.992 65.151 135.768 65.111 150.543 65.07 Z" fill="#8c949f" fill-opacity="1" stroke="none"/>
 </g>
</svg>
