<?xml version="1.0" encoding="UTF-8"?>
<svg width="200px" height="200px" viewBox="0 0 200 200" xmlns="http://www.w3.org/2000/svg" xmlns:xlink="http://www.w3.org/1999/xlink" version="1.1">
 <g id="Forme-181">
  <path id="Tracé" d="M20.359 100.186 C19.485 98.683 19.904 96.56 21.284 95.502 22.664 94.444 24.824 94.591 26.048 95.825 28.082 97.875 30.115 99.926 32.149 101.976 32.365 102.194 32.725 102.418 32.941 102.2 34.791 100.343 36.641 98.487 38.491 96.63 39.064 96.055 39.651 95.47 40.382 95.118 41.899 94.387 43.909 94.907 44.881 96.283 45.853 97.659 45.672 99.727 44.475 100.913 42.402 102.968 40.33 105.022 38.257 107.077 38.136 107.197 38.006 107.337 38.011 107.507 38.015 107.666 38.135 107.795 38.247 107.907 40.328 109.982 42.409 112.058 44.49 114.133 45.715 115.355 45.862 117.501 44.815 118.878 43.768 120.256 41.661 120.688 40.156 119.834 39.612 119.526 39.159 119.082 38.712 118.644 36.849 116.817 34.985 114.989 33.122 113.162 32.917 112.961 32.581 112.756 32.379 112.959 30.501 114.849 28.622 116.74 26.744 118.63 26.298 119.079 25.845 119.533 25.298 119.851 23.793 120.724 21.669 120.303 20.612 118.921 19.555 117.54 19.703 115.38 20.939 114.156 L27.207 107.947 C27.363 107.792 27.524 107.535 27.367 107.38 25.437 105.463 23.508 103.546 21.578 101.629 21.13 101.184 20.676 100.732 20.359 100.186 Z" fill="#af41cb" fill-opacity="1" stroke="none"/>
  <path id="Tracé-1" d="M18.108 136.08 C17.853 134.147 19.343 132.325 21.13 131.544 22.917 130.762 24.937 130.782 26.887 130.812 36.729 130.963 46.573 131.039 56.417 131.04 58.044 131.04 60.011 130.837 60.72 129.372 64.072 122.447 68.635 116.109 74.139 110.733 66.891 104.751 60.04 98.085 55.228 90.012 50.416 81.94 47.769 72.296 49.377 63.036 50.986 53.777 57.324 45.12 66.236 42.138 78.232 38.124 91.747 45.225 98.885 55.668 106.024 66.111 108.136 79.113 109.485 91.69 114.035 90.592 118.771 89.489 123.35 90.459 127.93 91.428 132.294 95.118 132.415 99.797 132.515 103.65 129.812 107.314 130.511 111.104 136.363 106.541 142.215 101.978 148.067 97.415 150.428 95.574 152.871 93.691 155.757 92.898 158.644 92.104 162.117 92.665 163.946 95.035 165.316 96.81 165.52 99.196 165.621 101.436 165.722 103.675 165.811 106.042 167.018 107.931 168.226 109.82 171 110.904 172.775 109.534 174.917 107.88 178.335 110.325 178.247 113.03 178.158 115.735 175.731 117.854 173.164 118.712 169.31 120.001 164.802 119.098 161.741 116.426 158.679 113.753 157.177 109.409 157.933 105.416 158.246 103.766 156.181 102.487 154.542 102.852 152.903 103.216 151.7 104.566 150.564 105.803 146.149 110.614 141.034 114.783 135.43 118.138 133.231 119.455 130.889 120.668 128.344 120.971 125.798 121.273 122.991 120.501 121.437 118.463 118.141 114.144 122.116 108.187 122.637 102.779 122.714 101.981 122.688 101.105 122.19 100.476 121.635 99.776 120.67 99.586 119.789 99.444 117.569 99.086 115.268 98.732 113.098 99.321 110.928 99.911 108.918 101.72 108.85 103.967 108.574 113.144 106.946 122.28 104.036 130.987 126.765 130.962 149.494 130.936 172.223 130.911 174.208 130.909 176.27 130.923 178.061 131.78 179.852 132.637 181.279 134.6 180.85 136.538 180.201 139.468 176.363 140.097 173.362 140.098 148.923 140.101 124.483 140.105 100.044 140.109 96.448 146.405 91.94 152.404 85.782 156.231 79.625 160.058 71.569 161.391 65.037 158.245 58.505 155.099 54.419 146.845 57.188 140.144 46.811 140.14 36.433 140.135 26.055 140.131 22.791 140.13 18.534 139.316 18.108 136.08 M58.045 73.12 C59.028 79.601 61.924 85.705 65.855 90.951 69.786 96.196 74.728 100.62 80.036 104.467 80.313 104.668 80.699 104.869 80.97 104.659 86.888 100.068 93.518 96.395 100.549 93.813 100.12 84.174 98.62 74.424 94.465 65.717 92.037 60.628 88.613 55.856 83.861 52.821 79.109 49.786 72.886 48.719 67.724 50.989 63.76 52.732 60.744 56.289 59.175 60.325 57.605 64.362 57.396 68.838 58.045 73.12 M81.226 115.622 C76.416 119.965 72.403 125.186 69.443 130.951 77.639 130.958 85.836 130.966 94.032 130.973 94.191 130.973 94.36 130.971 94.494 130.884 94.641 130.788 94.711 130.613 94.772 130.449 98.022 121.723 99.796 112.475 100.325 103.179 96.077 104.828 92.053 107.05 88.395 109.767 89.687 110.371 91.052 111.037 91.803 112.25 92.469 113.324 92.53 114.741 91.979 115.878 91.427 117.015 90.288 117.841 89.039 118.033 87.8 118.223 86.543 117.822 85.42 117.265 84.298 116.708 83.258 115.992 82.114 115.48 81.961 115.412 81.794 115.345 81.629 115.376 81.472 115.404 81.344 115.515 81.226 115.622 M66.106 140.101 C65.912 141.636 65.78 143.193 65.976 144.728 66.171 146.263 66.715 147.787 67.738 148.948 68.185 149.455 68.718 149.886 69.307 150.218 70.598 150.945 72.118 151.174 73.599 151.145 77.01 151.077 80.311 149.696 83.046 147.656 85.781 145.616 87.989 142.944 89.883 140.106 81.957 140.105 74.031 140.103 66.106 140.101 Z" fill="#af41cb" fill-opacity="1" stroke="none"/>
 </g>
</svg>
