<?xml version="1.0" encoding="UTF-8"?>
<svg width="200px" height="200px" viewBox="0 0 200 200" xmlns="http://www.w3.org/2000/svg" xmlns:xlink="http://www.w3.org/1999/xlink" version="1.1">
 <path id="Forme-189" d="M129.798 56.625 C132.712 46.266 143.889 38.945 154.549 40.412 165.21 41.879 173.993 51.948 174 62.709 174.007 73.47 165.235 83.55 154.577 85.031 143.918 86.511 132.732 79.203 129.806 68.848 125.95 68.154 121.823 69.124 118.679 71.461 115.983 73.466 114.071 76.352 112.54 79.344 108.317 87.592 106.648 96.865 104.739 105.934 102.831 115.002 100.536 124.237 95.303 131.885 90.07 139.533 81.271 145.374 72.034 144.631 70.084 144.474 68.939 146.687 68.08 148.444 63.511 157.806 51.839 163.044 41.808 160.235 31.776 157.426 24.522 146.889 25.478 136.516 26.435 126.142 35.494 117.109 45.87 116.181 56.246 115.254 66.763 122.538 69.543 132.577 73.413 133.039 77.495 132.217 80.663 129.948 83.451 127.951 85.389 124.981 86.932 121.917 91.221 113.399 92.882 103.848 94.899 94.527 96.917 85.206 99.463 75.709 105.16 68.062 110.858 60.414 120.41 54.945 129.798 56.625 Z" fill="#5f82fd" fill-opacity="1" stroke="none"/>
</svg>
