<svg width="200px" height="200px" viewBox="0 0 200 200" xmlns="http://www.w3.org/2000/svg" xmlns:xlink="http://www.w3.org/1999/xlink" version="1.1">
 <g id="New-Group">
  <path id="Tracé" d="M96.291 93.884 C95.114 95.732 93.126 96.972 91.011 97.542 89.078 98.062 87.049 98.064 85.047 98.062 68.306 98.047 51.564 98.033 34.823 98.018 31.698 98.015 28.3 97.92 25.881 95.942 22.748 93.381 22.497 88.766 22.5 84.719 22.506 77.359 22.513 70 22.519 62.641 22.522 59.183 22.665 55.358 25.048 52.853 27.59 50.182 31.718 50.002 35.406 50.002 52.239 50.001 69.072 50.001 85.906 50 87.969 50 90.085 50.009 92.018 50.734 94.235 51.566 96.075 53.353 96.971 55.546 97.815 57.612 97.827 59.911 97.826 62.143 97.823 70.063 97.819 77.982 97.816 85.902 97.815 88.65 97.767 91.566 96.291 93.884 Z" fill-opacity="1" stroke="none"/>
  <path id="Tracé-1" d="M36.726 115.219 C37.775 112.869 40.12 111.3 42.588 110.572 45.056 109.844 47.671 109.842 50.245 109.845 64.095 109.861 77.945 109.877 91.795 109.893 95.349 109.898 99.291 110.051 101.838 112.53 104.482 115.103 104.651 119.224 104.647 122.914 104.642 128.212 104.637 133.51 104.632 138.808 104.63 140.944 104.617 143.139 103.842 145.13 102.973 147.362 101.133 149.197 98.899 150.061 96.904 150.833 94.707 150.84 92.568 150.836 77.609 150.81 62.649 150.784 47.689 150.759 45.645 150.755 43.547 150.742 41.637 150.012 39.775 149.301 38.183 147.907 37.232 146.155 35.886 143.676 35.864 140.718 35.875 137.898 35.896 132.164 35.918 126.431 35.94 120.698 35.947 118.839 35.967 116.916 36.726 115.219 Z" fill-opacity="1" stroke="none"/>
  <path id="Tracé-2" d="M174.22 61.016 C176.411 63.503 176.527 67.139 176.528 70.454 176.532 90.479 176.536 110.505 176.54 130.53 176.541 134.232 176.373 138.36 173.734 140.957 171.154 143.496 167.133 143.655 163.512 143.659 152.109 143.671 140.706 143.682 129.302 143.694 125.275 143.698 120.704 143.465 118.094 140.398 115.971 137.903 115.865 134.324 115.865 131.048 115.864 110.872 115.864 90.697 115.863 70.522 115.863 67.22 115.972 63.609 118.121 61.102 120.739 58.048 125.302 57.819 129.325 57.825 140.673 57.84 152.021 57.856 163.369 57.872 167.257 57.878 171.649 58.099 174.22 61.016 Z" fill-opacity="1" stroke="none"/>
 </g>
</svg>
