<svg width="200px" height="200px" viewBox="0 0 200 200" xmlns="http://www.w3.org/2000/svg" xmlns:xlink="http://www.w3.org/1999/xlink" version="1.1">
 <g id="Forme-173">
  <path id="Tracé" d="M140.53 52.124 C139.703 51.512 138.893 50.998 138.164 50.388 136.518 49.011 134.677 47.935 132.88 46.78 130.626 45.331 128.232 44.154 125.812 43.05 123.586 42.033 121.258 41.219 118.928 40.455 117.339 39.935 115.661 39.695 114.042 39.255 112.425 38.816 110.788 38.554 109.124 38.395 108.281 38.314 107.451 38.108 106.611 37.979 106.072 37.896 105.862 38.095 105.832 38.674 105.821 38.889 105.83 39.105 105.83 39.32 105.83 45.991 105.836 52.662 105.826 59.332 105.824 60.79 105.245 62.026 104.275 63.101 103.57 63.882 102.798 64.598 101.734 64.756 99.711 65.058 97.743 65.047 96.118 63.463 95.049 62.421 94.392 61.24 94.164 59.737 94.075 59.151 94.003 58.572 94.002 57.99 93.992 48.844 93.985 39.699 94.007 30.553 94.01 29.298 94.217 28.04 94.865 26.934 95.693 25.521 96.873 24.515 98.531 24.213 99.244 24.083 99.977 23.99 100.699 24.001 103.109 24.039 105.522 24.071 107.926 24.224 109.637 24.333 111.354 24.537 113.035 24.873 115.176 25.301 117.323 25.701 119.443 26.262 121.703 26.86 123.938 27.516 126.135 28.303 127.506 28.795 128.847 29.373 130.185 29.952 131.888 30.69 133.615 31.389 135.258 32.246 138.052 33.703 140.785 35.276 143.364 37.098 144.835 38.137 146.339 39.133 147.764 40.231 148.924 41.126 150.011 42.121 151.091 43.114 152.528 44.435 153.944 45.781 155.34 47.145 157.344 49.102 159.075 51.295 160.843 53.462 162.466 55.45 163.875 57.579 165.292 59.702 166.292 61.2 167.157 62.793 168.009 64.383 168.808 65.875 169.543 67.403 170.247 68.943 171.045 70.69 171.818 72.453 172.523 74.24 172.962 75.351 173.251 76.52 173.616 77.661 174.218 79.543 174.814 81.42 175.141 83.382 175.405 84.971 175.869 86.525 176.184 88.107 176.333 88.851 176.322 89.625 176.417 90.381 176.542 91.364 176.701 92.343 176.841 93.324 176.856 93.43 176.835 93.54 176.844 93.647 177.135 96.984 177.066 100.329 177.048 103.671 177.041 104.969 176.944 106.269 176.835 107.563 176.73 108.798 176.604 110.035 176.4 111.256 176.167 112.653 175.775 114.024 175.569 115.423 175.332 117.03 174.861 118.573 174.504 120.146 174.089 121.977 173.49 123.746 172.881 125.506 172.2 127.476 171.371 129.399 170.535 131.311 169.804 132.982 169.039 134.645 168.171 136.247 167.261 137.925 166.259 139.558 165.209 141.153 163.812 143.276 162.354 145.36 160.873 147.426 160.229 148.327 159.509 149.183 158.746 149.987 156.538 152.313 154.379 154.696 152.032 156.876 150.041 158.726 147.956 160.494 145.676 162.011 143.756 163.288 141.962 164.771 139.974 165.927 137.188 167.548 134.32 169.047 131.403 170.421 128.433 171.82 125.334 172.939 122.177 173.855 120.279 174.406 118.332 174.792 116.412 175.27 114.793 175.673 113.162 175.968 111.499 176.154 110.303 176.287 109.105 176.438 107.913 176.596 106.716 176.754 105.505 176.599 104.345 176.807 102.574 177.124 100.812 176.95 99.048 176.969 97.429 176.987 95.806 176.877 94.189 176.763 92.882 176.67 91.566 176.567 90.282 176.323 88.456 175.976 86.616 175.728 84.797 175.305 82.349 174.735 79.923 174.147 77.525 173.372 75.179 172.615 72.895 171.752 70.633 170.778 68.492 169.856 66.427 168.799 64.368 167.724 63.007 167.013 61.676 166.234 60.378 165.411 58.978 164.522 57.62 163.564 56.269 162.601 55.1 161.767 53.952 160.901 52.821 160.016 50.263 158.014 47.869 155.828 45.633 153.473 43.831 151.577 42.143 149.585 40.506 147.539 39.029 145.695 37.68 143.769 36.359 141.82 35.57 140.657 34.852 139.44 34.182 138.205 32.929 135.895 31.64 133.597 30.538 131.214 29.188 128.296 28.087 125.265 27.093 122.208 26.473 120.302 26.017 118.338 25.581 116.379 25.278 115.017 25.134 113.62 24.919 112.239 24.704 110.858 24.488 109.476 24.275 108.095 24.264 108.025 24.275 107.951 24.273 107.88 24.202 105.794 24.115 103.708 24.064 101.621 24.033 100.402 24.065 99.182 24.056 97.963 24.043 96.144 24.166 94.34 24.474 92.543 24.584 91.902 24.541 91.246 24.672 90.585 24.985 89.007 25.05 87.381 25.371 85.806 25.746 83.972 26.248 82.162 26.769 80.362 27.249 78.703 27.801 77.063 28.37 75.432 28.807 74.181 29.28 72.939 29.809 71.725 30.658 69.78 31.486 67.819 32.472 65.944 33.546 63.903 34.743 61.922 35.976 59.972 37.259 57.944 38.591 55.939 40.016 54.01 40.97 52.719 42.031 51.474 43.214 50.394 44.721 49.018 46.599 48.298 48.661 48.553 49.961 48.714 51.205 49.158 52.166 50.229 52.953 51.106 53.826 51.924 54.165 53.066 54.596 54.522 54.594 56.04 54.124 57.485 53.663 58.904 52.882 60.157 51.879 61.297 50.956 62.345 50.154 63.505 49.357 64.656 47.408 67.467 45.627 70.384 44.191 73.49 43.358 75.293 42.628 77.148 41.932 79.009 41.351 80.564 40.844 82.151 40.386 83.747 39.978 85.164 39.673 86.611 39.34 88.049 39.111 89.033 38.878 90.019 38.711 91.014 38.602 91.657 38.628 92.312 38.514 92.971 38.307 94.173 38.405 95.425 38.243 96.638 38.013 98.366 38.056 100.093 38.045 101.824 38.033 103.606 38.236 105.37 38.468 107.134 38.586 108.031 38.566 108.946 38.703 109.839 38.948 111.448 39.163 113.073 39.576 114.643 40.202 117.024 40.928 119.383 41.723 121.713 42.29 123.372 42.996 124.988 43.719 126.587 44.43 128.16 45.163 129.732 46.028 131.223 47.025 132.941 48.151 134.585 49.269 136.23 50.168 137.553 51.121 138.841 52.083 140.121 52.523 140.706 53.031 141.241 53.523 141.785 54.328 142.675 55.1 143.6 55.967 144.425 57.184 145.585 58.468 146.676 59.736 147.782 60.68 148.606 61.598 149.471 62.609 150.205 64.389 151.497 66.196 152.761 68.06 153.929 69.582 154.883 71.186 155.715 72.786 156.537 75.892 158.133 79.137 159.394 82.475 160.42 84.531 161.051 86.613 161.564 88.735 161.939 90.29 162.215 91.856 162.383 93.414 162.607 97.01 163.122 100.613 163.001 104.216 162.978 105.807 162.968 107.405 162.779 108.985 162.556 111.863 162.152 114.709 161.547 117.52 160.823 119.315 160.361 121.064 159.694 122.801 159.034 125.314 158.079 127.78 156.995 130.12 155.67 132.278 154.447 134.397 153.148 136.474 151.793 137.594 151.061 138.571 150.113 139.65 149.314 141.126 148.221 142.444 146.96 143.729 145.657 144.984 144.385 146.348 143.207 147.499 141.848 149.921 138.987 152.174 136.002 154.09 132.756 155.415 130.511 156.616 128.214 157.702 125.854 158.534 124.047 159.248 122.191 159.859 120.291 160.514 118.253 161.134 116.211 161.567 114.113 161.94 112.308 162.234 110.496 162.463 108.664 162.681 106.929 162.865 105.206 162.868 103.458 162.869 102.698 163.069 101.938 163.057 101.18 163.025 99.129 162.962 97.077 162.843 95.029 162.765 93.686 162.625 92.341 162.41 91.013 162.194 89.685 161.789 88.389 161.581 87.061 161.334 85.492 160.91 83.974 160.488 82.452 159.244 77.978 157.343 73.782 155.118 69.72 153.835 67.379 152.345 65.18 150.797 63.005 148.323 59.531 145.238 56.636 142.252 53.642 141.731 53.119 141.141 52.664 140.53 52.124 Z" fill="#8c949f" fill-opacity="1" stroke="none"/>
  <path id="Tracé-1" d="M104.97 115.874 C104.252 115.874 103.643 115.869 103.033 115.875 100.514 115.902 98.4 114.816 96.406 113.436 94.046 111.802 92.581 109.389 90.982 107.097 89.371 104.787 87.749 102.485 86.149 100.168 85.092 98.638 84.079 97.078 83.023 95.547 81.386 93.174 79.718 90.822 78.085 88.445 76.899 86.719 75.771 84.952 74.577 83.231 72.873 80.775 71.129 78.347 69.411 75.901 68.261 74.264 67.111 72.626 65.991 70.969 65.191 69.786 64.86 68.504 65.375 67.1 65.796 65.953 66.683 65.287 67.773 64.882 69.106 64.388 70.301 64.934 71.365 65.626 72.961 66.663 74.46 67.851 76.019 68.949 78.125 70.434 80.247 71.897 82.366 73.364 83.981 74.483 85.605 75.591 87.219 76.711 89.114 78.026 91.002 79.352 92.897 80.667 94.512 81.788 96.134 82.897 97.749 84.016 99.868 85.484 101.977 86.966 104.101 88.425 105.745 89.554 107.429 90.627 109.054 91.783 110.229 92.619 111.411 93.471 112.459 94.456 114.141 96.036 115.286 98.025 115.861 100.238 116.307 101.95 116.283 103.729 115.977 105.524 115.598 107.746 114.482 109.509 113.176 111.266 112.028 112.811 110.471 113.789 108.915 114.765 108.151 115.244 107.17 115.388 106.278 115.652 105.89 115.767 105.478 115.803 104.97 115.874 Z" fill="#8c949f" fill-opacity="1" stroke="none"/>
 </g>
</svg>
