<?xml version="1.0" encoding="UTF-8"?>
<svg width="200px" height="200px" viewBox="0 0 200 200" xmlns="http://www.w3.org/2000/svg" xmlns:xlink="http://www.w3.org/1999/xlink" version="1.1">
 <path id="Forme-176" d="M178.455 153.106 C178.588 158.562 177.716 165.31 172.615 167.251 169.046 168.608 164.951 166.72 162.35 163.925 159.749 161.129 158.201 157.545 156.195 154.295 150.825 145.594 142.062 139.295 132.473 135.746 122.884 132.196 112.492 131.241 102.275 131.653 102.283 139.191 102.291 146.729 102.298 154.266 102.301 157.236 102.274 160.338 100.911 162.977 99.007 166.663 94.432 168.743 90.403 167.755 87.309 166.995 84.84 164.736 82.516 162.558 64.131 145.328 45.746 128.098 27.36 110.868 24.091 107.804 20.555 104.097 20.881 99.628 21.154 95.879 24.089 92.944 26.838 90.38 45.146 73.303 63.453 56.226 81.761 39.15 85.923 35.267 91.621 31.101 96.766 33.536 101.652 35.85 102.314 42.411 102.291 47.818 102.26 55.002 102.229 62.187 102.198 69.371 121.354 68.779 141.447 73.72 155.437 86.818 164.209 95.031 170.101 105.991 173.561 117.499 177.021 129.007 178.164 141.092 178.455 153.106 Z" fill="#8c949f" fill-opacity="1" stroke="none"/>
</svg>
