<?xml version="1.0" encoding="UTF-8"?>
<svg width="200px" height="200px" viewBox="0 0 200 200" xmlns="http://www.w3.org/2000/svg" xmlns:xlink="http://www.w3.org/1999/xlink" version="1.1">
 <g id="Forme-182">
  <path id="Tracé" d="M148.109 42.78 C151.651 46.107 155.044 49.594 158.273 53.227 137.589 73.869 116.905 94.51 96.221 115.152 91.672 119.692 85.403 121.98 79.348 124.136 78.218 124.538 76.659 124.794 76.081 123.742 75.696 123.041 76.035 122.178 76.376 121.454 77.677 118.684 78.979 115.914 80.28 113.143 80.963 111.691 81.648 110.232 82.534 108.894 83.763 107.035 85.352 105.446 86.929 103.871 107.322 83.507 127.715 63.143 148.109 42.78 Z" fill="#00a1fe" fill-opacity="1" stroke="none"/>
  <path id="Tracé-1" d="M152.691 164.248 C147.382 171.388 137.115 172.018 128.217 172 103.905 171.948 79.593 171.897 55.28 171.846 48.654 171.832 41.465 171.629 36.296 167.484 29.428 161.976 28.862 151.912 28.867 143.109 28.879 119.69 28.892 96.272 28.905 72.853 28.907 68.283 28.916 63.66 30.012 59.224 31.108 54.787 33.418 50.485 37.18 47.891 41.873 44.655 47.966 44.533 53.666 44.528 78.327 44.504 102.988 44.481 127.649 44.457 124.808 47.427 121.968 50.396 119.127 53.365 117.305 55.27 115.173 57.314 112.537 57.311 93.315 57.286 74.093 57.261 54.871 57.236 50.891 57.231 46.334 57.489 43.862 60.608 42.027 62.924 41.944 66.128 41.943 69.083 41.936 94.84 41.928 120.597 41.92 146.354 41.919 150.1 42.136 154.347 44.979 156.786 47.317 158.79 50.683 158.892 53.762 158.893 80.293 158.903 106.824 158.912 133.355 158.921 135.188 158.922 137.091 158.908 138.75 158.126 143.005 156.12 143.598 150.416 143.595 145.712 143.582 126.414 143.568 107.116 143.555 87.818 143.554 86.175 144.814 84.838 145.99 83.691 149.522 80.244 153.054 76.797 156.586 73.35 156.551 97.814 156.517 122.278 156.483 146.742 156.475 152.822 156.319 159.369 152.691 164.248 Z" fill="#00a1fe" fill-opacity="1" stroke="none"/>
  <path id="Tracé-2" d="M157.03 33.768 C158.063 32.715 159.112 31.649 160.378 30.892 161.645 30.136 163.176 29.71 164.612 30.048 165.955 30.365 167.061 31.3 168.045 32.268 169.573 33.772 171.024 35.636 171 37.78 170.973 40.083 169.273 41.981 167.676 43.641 166.507 44.855 165.338 46.069 164.169 47.284 164.058 47.399 163.928 47.522 163.768 47.52 163.618 47.518 163.496 47.404 163.39 47.298 160.233 44.141 157.076 40.983 153.919 37.825 153.797 37.703 153.667 37.562 153.665 37.389 153.663 37.214 153.794 37.069 153.917 36.943 154.955 35.885 155.993 34.827 157.03 33.768 Z" fill="#00a1fe" fill-opacity="1" stroke="none"/>
 </g>
</svg>
