<?xml version="1.0" encoding="UTF-8"?>
<svg width="200px" height="200px" viewBox="0 0 200 200" xmlns="http://www.w3.org/2000/svg" xmlns:xlink="http://www.w3.org/1999/xlink" version="1.1">
 <path id="Forme-186" d="M166.978 155.738 C166.977 159.238 166.767 163.215 164.091 165.472 161.932 167.293 158.848 167.38 156.023 167.377 126.796 167.344 97.569 167.312 68.341 167.279 65.414 167.276 62.331 167.233 59.801 165.76 54.831 162.867 54.743 154.416 59.651 151.42 62.297 149.804 65.583 149.784 68.684 149.818 92.775 150.084 116.862 150.709 140.934 151.693 122.819 135.983 105.911 118.944 89.022 101.923 71.52 84.284 54.018 66.645 36.515 49.006 35.007 47.486 33.464 45.915 32.63 43.942 31.339 40.886 32.078 37.082 34.42 34.731 36.761 32.381 40.562 31.627 43.623 32.906 45.628 33.743 47.221 35.312 48.761 36.845 65.378 53.385 81.996 69.926 98.613 86.466 116.649 104.418 134.7 122.386 151.491 141.508 150.068 117.282 149.428 93.011 149.572 68.744 149.59 65.675 149.673 62.425 151.32 59.835 154.297 55.155 162.331 55.17 165.292 59.86 166.95 62.487 167.001 65.781 167 68.887 166.993 97.837 166.985 126.787 166.978 155.738 Z" fill="#f44336" fill-opacity="1" stroke="none"/>
</svg>
