<svg viewBox="0 0 200 200" xmlns="http://www.w3.org/2000/svg" xmlns:xlink="http://www.w3.org/1999/xlink" version="1.1">
 <g id="Forme-174">
  <path id="Tracé" d="M65.669 51.183 C66.083 49.232 67.24 46.824 69.216 47.094 70.816 47.313 71.55 49.175 71.892 50.753 72.744 54.694 73.126 58.731 74.111 62.64 75.097 66.549 76.767 70.424 79.73 73.158 82.479 75.695 86.112 77.046 89.73 77.996 92.918 78.833 96.175 79.406 99.456 79.708 100.625 79.816 101.828 79.897 102.886 80.403 103.945 80.909 104.839 81.959 104.775 83.13 104.67 85.048 102.363 85.92 100.471 86.248 93.457 87.462 85.714 87.826 80.41 92.573 77.453 95.219 75.658 98.946 74.554 102.758 73.451 106.57 72.972 110.529 72.208 114.423 71.797 116.514 70.63 119.107 68.512 118.884 66.489 118.671 65.812 116.115 65.563 114.097 65.177 110.972 64.63 107.868 63.927 104.799 63.035 100.911 61.823 96.952 59.225 93.924 56.74 91.027 53.174 89.23 49.498 88.201 45.823 87.171 41.994 86.843 38.199 86.426 36.97 86.291 35.7 86.133 34.634 85.504 33.569 84.874 32.758 83.642 33.009 82.43 33.406 80.51 35.851 79.991 37.801 79.791 40.871 79.475 43.92 78.954 46.921 78.232 50.619 77.342 54.35 76.087 57.23 73.602 60.316 70.94 62.149 67.087 63.256 63.165 64.362 59.243 64.824 55.17 65.669 51.183 Z" fill="#8c949f" fill-opacity="1" stroke="none"/>
  <path id="Tracé-1" d="M155.528 145.797 C159.009 159.632 153.024 175.341 141.22 183.352 137.979 185.552 132.839 186.835 130.725 183.539 129.401 181.476 130.193 178.638 131.748 176.744 133.303 174.85 135.478 173.591 137.372 172.036 143.072 167.357 146.14 159.664 145.225 152.347 135.235 158.156 123.319 160.588 111.851 159.156 108.423 158.728 105.005 157.965 101.555 158.134 84.532 158.968 66.676 154.763 53.881 143.504 41.085 132.245 34.588 113.155 40.905 97.325 41.032 97.007 41.174 96.677 41.44 96.461 41.869 96.112 42.485 96.158 43.034 96.222 45.005 96.45 47.05 96.704 48.729 97.76 50.408 98.816 51.604 100.923 50.964 102.801 46.961 114.558 52.508 128.113 62.104 135.997 71.699 143.881 84.527 146.84 96.944 147.076 95.977 142.151 97.684 136.919 100.872 133.042 104.06 129.166 108.599 126.559 113.387 125.053 126.37 120.967 141.577 125.205 150.576 135.415 161.56 126.754 168.371 112.529 166.709 98.641 164.731 82.113 151.145 68.471 135.356 63.201 119.566 57.932 102.095 59.981 86.365 65.424 83.73 63.077 82.21 59.529 82.326 56.002 82.361 54.92 83.58 54.334 84.611 54.003 102.099 48.392 121.344 46.879 138.78 52.649 156.216 58.418 171.478 72.179 176.365 89.882 181.994 110.277 172.616 133.321 155.528 145.797 M140.92 142.063 C141.056 141.84 140.886 141.561 140.719 141.36 138.166 138.292 134.471 136.286 130.579 135.397 126.688 134.509 122.607 134.686 118.696 135.484 115.489 136.138 112.244 137.279 109.949 139.612 108.84 140.738 107.96 142.226 108.049 143.804 108.154 145.647 109.593 147.21 111.28 147.96 112.967 148.709 114.87 148.785 116.716 148.749 125.068 148.586 133.372 146.34 140.666 142.269 140.762 142.215 140.863 142.158 140.92 142.063 Z" fill="#8c949f" fill-opacity="1" stroke="none"/>
  <path id="Tracé-2" d="M55.663 53.054 C54.985 53.793 53.895 53.939 52.902 54.074 50.865 54.352 48.848 54.772 46.87 55.333 45.61 55.69 44.304 56.142 43.432 57.119 42.751 57.883 42.411 58.884 42.118 59.864 41.472 62.025 40.976 64.23 40.633 66.459 40.476 67.48 40.263 68.645 39.377 69.174 38.345 69.791 36.94 69.118 36.312 68.093 35.684 67.068 35.606 65.813 35.467 64.619 35.31 63.268 35.055 61.929 34.704 60.616 34.389 59.438 33.979 58.246 33.179 57.326 32.025 56 30.243 55.431 28.536 55.015 26.892 54.615 25.228 54.3 23.552 54.074 22.711 53.96 21.815 53.847 21.164 53.302 20.522 52.767 20.24 51.839 20.473 51.036 20.707 50.234 21.443 49.603 22.272 49.495 24.576 49.194 26.86 48.734 29.102 48.12 30.671 47.69 32.317 47.117 33.31 45.828 33.766 45.235 34.05 44.529 34.297 43.823 34.897 42.101 35.307 40.314 35.516 38.503 35.646 37.381 35.712 36.208 36.272 35.227 36.831 34.246 38.079 33.541 39.106 34.011 40.061 34.448 40.382 35.622 40.592 36.651 40.922 38.261 41.252 39.871 41.581 41.482 41.927 43.169 42.323 44.956 43.527 46.189 44.556 47.244 46.024 47.729 47.447 48.113 49.318 48.619 51.218 49.014 53.135 49.298 53.992 49.424 54.913 49.556 55.547 50.146 56.335 50.879 56.39 52.261 55.663 53.054 Z" fill="#8c949f" fill-opacity="1" stroke="none"/>
  <path id="Tracé-3" d="M58.516 37.383 C58.058 36.081 57.957 34.684 57.652 33.338 57.348 31.992 56.78 30.619 55.658 29.815 55.029 29.364 54.273 29.128 53.523 28.933 52.619 28.698 51.702 28.513 50.777 28.378 49.963 28.259 49.094 28.16 48.451 27.646 47.807 27.132 47.564 26.028 48.201 25.507 48.446 25.306 48.766 25.23 49.074 25.16 50.309 24.879 51.545 24.598 52.78 24.317 53.685 24.111 54.613 23.896 55.39 23.388 57.386 22.08 57.755 19.372 58.117 17.013 58.213 16.389 58.33 15.746 58.684 15.223 59.038 14.7 59.694 14.33 60.302 14.499 61.132 14.73 61.419 15.739 61.568 16.588 61.779 17.79 61.991 18.992 62.202 20.194 62.471 21.726 63.691 22.954 65.085 23.643 66.48 24.331 68.047 24.567 69.585 24.799 70.603 24.952 71.858 25.335 71.992 26.356 72.068 26.935 71.703 27.502 71.217 27.826 70.731 28.15 70.143 28.275 69.567 28.374 67.198 28.78 64.444 29.028 63.088 31.012 62.518 31.847 62.304 32.868 62.102 33.859 61.919 34.756 61.737 35.652 61.554 36.549 61.448 37.072 61.335 37.61 61.036 38.052 60.738 38.494 60.203 38.821 59.681 38.713 59.076 38.589 58.721 37.965 58.516 37.383 Z" fill="#8c949f" fill-opacity="1" stroke="none"/>
 </g>
</svg>
