<?xml version="1.0" encoding="UTF-8"?>
<svg width="200px" height="200px" viewBox="0 0 200 200" xmlns="http://www.w3.org/2000/svg" xmlns:xlink="http://www.w3.org/1999/xlink" version="1.1">
 <path id="Forme-190" d="M150.217 165.222 C140.012 154.992 129.807 144.763 119.601 134.533 100.66 147.511 73.81 147.68 54.707 134.942 35.605 122.203 25.439 97.351 30.139 74.877 34.839 52.403 54.111 33.706 76.717 29.69 99.324 25.674 123.857 36.588 136.01 56.068 148.163 75.548 147.18 102.381 133.634 120.92 143.495 130.712 153.357 140.503 163.218 150.295 166.327 153.382 169.625 156.859 169.975 161.226 170.439 167.012 164.296 172.308 158.642 170.996 155.279 170.216 152.656 167.666 150.217 165.222 M64.277 124.411 C76.605 131.793 92.638 132.577 105.628 126.433 118.618 120.289 128.183 107.399 130.298 93.185 132.413 78.972 127.015 63.855 116.376 54.195 104.309 43.238 85.88 39.872 70.718 45.856 55.556 51.84 44.393 66.884 43.061 83.13 41.729 99.375 50.292 116.037 64.277 124.411 Z" fill="#8c949f" fill-opacity="1" stroke="none"/>
</svg>
