<?xml version="1.0" encoding="UTF-8"?>
<svg width="200px" height="200px" viewBox="0 0 200 200" xmlns="http://www.w3.org/2000/svg" xmlns:xlink="http://www.w3.org/1999/xlink" version="1.1">
 <g id="Forme-179">
  <path id="Tracé" d="M171.348 43.862 C176.183 48.309 177.2 55.508 177.19 62.077 177.186 64.847 177.052 67.618 176.791 70.376 125.086 70.367 73.381 70.358 21.676 70.349 21.23 65.167 20.787 59.907 21.762 54.799 22.738 49.69 25.332 44.662 29.744 41.908 34.224 39.111 39.821 39.024 45.104 39.023 80.747 39.015 116.391 39.008 152.034 39 158.839 38.999 166.34 39.255 171.348 43.862 Z" fill="#fec208" fill-opacity="1" stroke="none"/>
  <path id="Tracé-1" d="M26.833 156.126 C21.782 151.285 21.452 143.457 21.458 136.461 21.471 119.492 21.485 102.524 21.498 85.555 73.345 85.566 125.191 85.577 177.038 85.588 177.055 102.309 177.072 119.03 177.089 135.751 177.096 143.045 176.736 151.233 171.399 156.205 166.528 160.744 159.177 161.001 152.518 161 116.867 160.993 81.216 160.987 45.565 160.98 38.944 160.979 31.612 160.707 26.833 156.126 M45.152 117.977 C45.022 118.656 45.02 119.351 45.018 120.042 45.007 123.569 44.997 127.096 44.987 130.623 44.983 131.812 44.984 133.025 45.35 134.157 45.868 135.757 47.14 137.095 48.712 137.694 49.989 138.181 51.391 138.188 52.758 138.19 56.99 138.193 61.222 138.197 65.454 138.201 67.514 138.203 69.706 138.168 71.433 137.044 72.182 136.556 72.806 135.877 73.229 135.089 74.056 133.549 74.079 131.719 74.082 129.971 74.088 127.254 74.094 124.538 74.099 121.821 74.104 119.38 73.991 116.645 72.222 114.962 70.566 113.387 68.038 113.294 65.753 113.294 61.474 113.293 57.196 113.292 52.918 113.291 51.384 113.29 49.799 113.3 48.394 113.915 46.743 114.637 45.49 116.207 45.152 117.977 Z" fill="#fec208" fill-opacity="1" stroke="none"/>
 </g>
</svg>
