<?xml version="1.0" encoding="UTF-8"?>
<svg width="200px" height="200px" viewBox="0 0 200 200" xmlns="http://www.w3.org/2000/svg" xmlns:xlink="http://www.w3.org/1999/xlink" version="1.1">
 <g id="Forme-193">
  <path id="Tracé" d="M173.315 164.685 C170.656 168.632 165.097 169.016 160.337 169 149.509 168.962 138.681 168.924 127.852 168.886 130.767 163.832 130.843 157.69 130.841 151.855 130.833 122.628 130.824 93.401 130.815 64.174 141.366 64.163 151.917 64.152 162.468 64.141 164.497 64.139 166.568 64.143 168.489 64.796 170.972 65.641 173.055 67.593 174.059 70.016 174.988 72.256 175.001 74.755 175 77.18 174.992 103.575 174.984 129.971 174.976 156.366 174.976 159.238 174.919 162.302 173.315 164.685 M145.925 98.311 C146.388 98.706 147.053 98.727 147.661 98.729 151.023 98.736 154.385 98.743 157.747 98.751 158.453 98.752 159.224 98.732 159.767 98.279 160.447 97.71 160.501 96.702 160.5 95.815 160.498 92.813 160.495 89.811 160.493 86.808 160.493 85.987 160.454 85.072 159.869 84.496 159.295 83.93 158.399 83.896 157.593 83.896 154.377 83.898 151.16 83.899 147.943 83.9 147.22 83.9 146.42 83.93 145.897 84.429 145.341 84.959 145.304 85.818 145.304 86.586 145.303 87.574 145.303 88.563 145.302 89.551 145.301 91.783 145.3 94.015 145.31 96.247 145.313 96.989 145.36 97.83 145.925 98.311 M148.594 134.187 C147.891 134.188 147.167 134.193 146.518 134.462 145.869 134.732 145.306 135.336 145.306 136.039 145.306 139.574 145.306 143.109 145.306 146.644 145.306 147.277 145.329 147.973 145.75 148.446 146.238 148.994 147.067 149.034 147.801 149.033 151.215 149.032 154.629 149.03 158.043 149.028 158.572 149.028 159.133 149.02 159.584 148.741 160.416 148.228 160.507 147.075 160.505 146.097 160.499 143.148 160.494 140.199 160.489 137.251 160.487 136.41 160.452 135.481 159.873 134.872 159.253 134.22 158.245 134.177 157.345 134.178 154.428 134.181 151.511 134.184 148.594 134.187 M145.818 123.318 C146.335 123.854 147.168 123.89 147.913 123.889 151.182 123.888 154.451 123.888 157.72 123.887 158.458 123.886 159.269 123.86 159.818 123.367 160.448 122.801 160.493 121.847 160.493 121 160.493 117.996 160.493 114.991 160.493 111.986 160.493 111.199 160.463 110.332 159.933 109.751 159.337 109.098 158.343 109.051 157.459 109.051 154.413 109.049 151.367 109.046 148.321 109.044 147.398 109.044 146.342 109.102 145.762 109.821 145.32 110.368 145.299 111.132 145.299 111.836 145.298 114.994 145.298 118.152 145.297 121.31 145.297 122.02 145.326 122.806 145.818 123.318 Z" fill="#555555" fill-opacity="1" stroke="none"/>
  <path id="Tracé-1" d="M24.649 46.605 C24.65 42.259 24.96 37.256 28.431 34.64 30.854 32.813 34.128 32.737 37.163 32.736 61.29 32.732 85.417 32.729 109.545 32.725 112.336 32.724 115.312 32.776 117.637 34.322 121.537 36.915 121.935 42.389 121.934 47.073 121.931 54.236 121.928 61.399 121.926 68.562 121.915 97.405 121.905 126.247 121.894 155.09 121.893 159.341 121.614 164.2 118.294 166.854 115.794 168.851 112.321 168.941 109.122 168.939 84.992 168.93 60.862 168.921 36.732 168.911 34.303 168.91 31.753 168.88 29.631 167.699 25.177 165.224 24.635 159.149 24.636 154.054 24.64 118.238 24.645 82.422 24.649 46.605 M96.069 138.964 C96.069 137.39 96.017 135.666 94.985 134.478 93.75 133.056 91.618 132.949 89.735 132.95 87.708 132.951 85.681 132.952 83.654 132.953 74.799 132.958 65.943 132.962 57.087 132.966 56.032 132.967 54.949 132.972 53.965 133.355 52.788 133.812 51.838 134.819 51.449 136.02 51.171 136.876 51.171 137.793 51.173 138.692 51.188 145.341 51.203 151.99 51.218 158.639 66.165 158.631 81.112 158.622 96.06 158.614 96.063 152.064 96.066 145.514 96.069 138.964 M66.396 52.286 C65.784 51.789 64.926 51.765 64.137 51.765 60.153 51.763 56.169 51.761 52.185 51.759 51.287 51.758 50.276 51.804 49.667 52.465 49.119 53.06 49.088 53.952 49.088 54.761 49.087 58.727 49.086 62.693 49.085 66.658 49.085 67.564 49.134 68.587 49.81 69.19 50.393 69.71 51.25 69.739 52.031 69.74 55.942 69.748 59.854 69.755 63.765 69.763 64.75 69.765 65.849 69.722 66.539 69.019 67.214 68.334 67.256 67.265 67.256 66.303 67.257 62.581 67.258 58.859 67.259 55.137 67.259 54.109 67.194 52.935 66.396 52.286 M97.525 52.519 C96.874 51.827 95.809 51.777 94.858 51.775 91.005 51.767 87.151 51.759 83.297 51.75 82.291 51.748 81.143 51.809 80.505 52.588 80.013 53.19 79.989 54.036 79.988 54.814 79.986 58.703 79.984 62.593 79.981 66.483 79.981 67.408 80.022 68.438 80.679 69.089 81.329 69.733 82.347 69.771 83.263 69.769 87.138 69.761 91.012 69.753 94.887 69.745 95.849 69.743 96.935 69.688 97.572 68.967 98.118 68.351 98.147 67.447 98.148 66.623 98.153 62.755 98.157 58.887 98.162 55.019 98.163 54.137 98.129 53.162 97.525 52.519 M66.678 78.642 C66.011 77.853 64.838 77.792 63.806 77.792 60.04 77.791 56.274 77.79 52.508 77.79 51.408 77.79 50.129 77.877 49.499 78.779 49.1 79.351 49.085 80.099 49.085 80.796 49.086 84.853 49.086 88.909 49.087 92.966 49.087 93.685 49.109 94.468 49.568 95.021 50.15 95.723 51.189 95.778 52.101 95.777 56.172 95.774 60.244 95.77 64.315 95.767 65.067 95.766 65.885 95.742 66.463 95.264 67.201 94.653 67.259 93.562 67.258 92.604 67.254 88.743 67.249 84.882 67.245 81.021 67.244 80.188 67.216 79.278 66.678 78.642 M66.602 104.616 C65.998 104.016 65.051 103.978 64.199 103.977 60.183 103.974 56.166 103.971 52.15 103.968 51.303 103.967 50.364 104.002 49.756 104.591 49.125 105.204 49.084 106.186 49.084 107.066 49.085 110.998 49.087 114.93 49.088 118.862 49.088 119.684 49.118 120.587 49.665 121.201 50.298 121.909 51.369 121.961 52.319 121.961 56.182 121.962 60.045 121.963 63.907 121.964 64.851 121.964 65.902 121.922 66.565 121.25 67.217 120.59 67.257 119.558 67.257 118.63 67.255 114.766 67.253 110.902 67.251 107.038 67.251 106.179 67.212 105.222 66.602 104.616 M80.449 104.825 C80.018 105.39 79.999 106.157 79.998 106.868 79.995 110.839 79.992 114.811 79.989 118.782 79.988 119.644 80.022 120.596 80.611 121.224 81.248 121.903 82.292 121.951 83.223 121.952 87.04 121.958 90.856 121.964 94.673 121.969 95.747 121.971 96.979 121.901 97.644 121.057 98.133 120.435 98.156 119.578 98.156 118.787 98.16 115.009 98.163 111.231 98.166 107.454 98.167 106.258 98.037 104.828 96.986 104.258 96.502 103.996 95.926 103.988 95.376 103.987 91.323 103.978 87.271 103.969 83.219 103.96 82.214 103.958 81.059 104.026 80.449 104.825 M80.353 94.883 C80.907 95.695 82.052 95.775 83.035 95.775 87.077 95.773 91.118 95.771 95.16 95.769 95.929 95.769 96.769 95.744 97.358 95.249 98.092 94.632 98.151 93.541 98.151 92.581 98.154 88.718 98.156 84.855 98.158 80.993 98.159 80.254 98.144 79.464 97.725 78.857 97.054 77.886 95.681 77.79 94.501 77.791 90.743 77.791 86.985 77.792 83.226 77.793 82.21 77.793 81.038 77.868 80.431 78.684 80.015 79.244 79.998 79.995 79.998 80.692 79.999 84.838 79.999 88.984 79.999 93.13 79.999 93.736 80.011 94.383 80.353 94.883 Z" fill="#555555" fill-opacity="1" stroke="none"/>
 </g>
</svg>
