<?xml version="1.0" encoding="UTF-8"?>
<svg width="200px" height="200px" viewBox="0 0 200 200" xmlns="http://www.w3.org/2000/svg" xmlns:xlink="http://www.w3.org/1999/xlink" version="1.1">
 <path id="Forme-177" d="M146.89 131.292 C134.302 145.31 114.205 150.851 95.425 149.361 78.342 148.006 61.549 141.194 49.132 129.384 37.887 118.688 30.545 104.276 26.981 89.171 23.418 74.067 23.484 58.272 25.607 42.898 26.001 40.05 27.041 36.585 29.874 36.086 32.314 35.656 34.36 37.768 36.152 39.479 43.995 46.97 55.406 49.543 66.251 49.589 77.097 49.634 87.832 47.481 98.664 46.94 109.194 46.414 119.928 47.454 129.762 51.252 139.596 55.051 148.495 61.767 153.788 70.885 159.385 80.527 160.631 92.148 159.86 103.27 159.729 105.15 159.291 107.386 157.541 108.084 155.668 108.831 153.741 107.282 152.247 105.928 146.12 100.375 138.741 96.211 130.82 93.838 120.119 90.632 108.749 90.713 97.69 89.135 86.63 87.558 75.117 83.843 68.141 75.117 67.285 74.047 65.364 74.731 64.861 76.006 64.358 77.28 64.833 78.72 65.414 79.961 68.933 87.476 76.236 92.642 83.993 95.592 91.749 98.543 100.071 99.585 108.247 101.009 121.51 103.32 134.873 106.812 146.087 114.263 155.953 120.818 163.702 130.162 169.939 140.232 171.905 143.406 173.763 146.735 174.5 150.395 175.237 154.056 174.707 158.138 172.308 160.998 169.759 164.038 164.776 165.107 161.692 162.612 159.491 160.832 158.735 157.868 157.964 155.145 155.567 146.674 151.813 138.59 146.89 131.292 Z" fill="#6fcc43" fill-opacity="1" stroke="none"/>
</svg>
