<?xml version="1.0" encoding="UTF-8"?>
<svg width="200px" height="200px" viewBox="0 0 200 200" xmlns="http://www.w3.org/2000/svg" xmlns:xlink="http://www.w3.org/1999/xlink" version="1.1">
 <path id="Forme-185" d="M175.02 88.502 C179.136 113.7 169.583 140.713 150.541 157.722 131.5 174.73 103.584 181.185 79.008 174.262 52.834 166.888 31.473 144.492 25.347 117.997 19.221 91.503 28.581 62.003 48.862 43.888 69.143 25.772 99.509 19.788 125.146 28.855 150.784 37.921 170.636 61.664 175.02 88.502 M158.278 73.861 C158.496 73.703 158.734 73.511 158.759 73.242 158.776 73.068 158.698 72.901 158.621 72.744 151.999 59.191 140.677 47.991 127.052 41.516 126.92 41.453 126.777 41.389 126.633 41.413 126.364 41.457 126.24 41.764 126.165 42.026 122.504 54.897 122.067 68.672 124.905 81.749 128.275 81.795 131.593 83.401 133.718 86.017 133.974 86.331 134.468 86.229 134.85 86.096 143.2 83.188 151.12 79.052 158.278 73.861 M133.055 103.791 C137.162 111.119 142.359 117.835 148.421 123.65 148.907 124.116 149.562 124.613 150.188 124.366 154.087 122.831 157.907 121.097 161.629 119.172 161.947 119.007 162.274 118.834 162.501 118.556 162.737 118.267 162.84 117.895 162.934 117.533 165.905 106.128 165.764 93.929 162.532 82.595 155.084 87.92 146.824 92.107 138.126 94.967 137.31 95.235 136.367 95.618 136.168 96.454 135.664 98.57 134.522 100.531 132.93 102.014 132.459 102.452 132.74 103.23 133.055 103.791 M90.81 139.979 C83.503 138.844 76.288 137.114 69.26 134.814 68.976 134.721 68.569 134.683 68.473 134.966 68.447 135.043 68.455 135.127 68.463 135.209 69.343 143.786 71.277 152.256 74.208 160.365 74.475 161.102 75.275 161.477 76.005 161.763 87.061 166.091 99.319 167.297 111.006 165.208 107.584 159.762 104.586 154.05 102.049 148.139 97.518 147.943 93.226 144.943 91.485 140.755 91.347 140.423 91.165 140.035 90.81 139.979 M89.596 38.59 C90.399 37.678 91.223 36.772 92.201 36.051 92.049 35.866 91.767 35.877 91.528 35.905 73.17 38.118 56.35 49.088 45.68 64.19 45.551 64.371 45.417 64.579 45.451 64.799 45.478 64.981 45.614 65.124 45.744 65.255 50.076 69.613 54.886 73.498 60.058 76.816 60.503 77.102 61.084 77.385 61.526 77.097 62.891 76.205 64.486 75.668 66.113 75.554 66.881 75.499 67.315 74.671 67.608 73.958 72.911 61.06 80.375 49.053 89.596 38.59 M40.914 73.973 C40.581 73.66 40.098 74.146 39.911 74.563 35.838 83.625 33.968 93.667 34.506 103.587 34.533 104.074 34.592 104.618 34.966 104.932 42.069 110.903 49.911 115.995 58.256 120.054 58.354 112.622 59.107 105.198 60.505 97.898 60.669 97.037 59.904 96.317 59.275 95.707 56.562 93.08 55.226 89.103 55.801 85.371 50.476 82.081 45.48 78.256 40.914 73.973 M101.523 100.095 C101.401 100.169 101.388 100.338 101.39 100.48 101.48 108.124 102.333 115.758 103.934 123.233 104.046 123.754 104.257 124.374 104.78 124.478 108.5 125.216 111.798 127.832 113.364 131.286 113.575 131.753 114.208 131.802 114.719 131.777 122.758 131.396 130.756 130.172 138.541 128.132 138.837 128.054 139.207 127.751 138.994 127.531 132.927 121.295 127.79 114.156 123.804 106.423 123.525 105.881 123.165 105.272 122.563 105.18 119.466 104.708 116.614 102.818 114.973 100.15 114.859 99.966 114.602 99.947 114.385 99.949 110.168 99.984 105.951 100.02 101.734 100.056 101.662 100.057 101.585 100.058 101.523 100.095 M67.856 124.263 C75.576 127.173 83.595 129.288 91.746 130.564 92.737 129.372 93.727 128.179 94.717 126.986 94.861 126.813 95.014 126.605 94.964 126.386 92.999 117.69 91.956 108.787 91.857 99.873 91.852 99.42 91.743 98.834 91.295 98.763 86.557 98.009 81.881 96.862 77.332 95.336 76.634 95.103 75.971 95.718 75.439 96.225 74.069 97.531 72.342 98.458 70.497 98.88 70.283 98.929 70.051 98.981 69.91 99.148 69.802 99.276 69.768 99.448 69.737 99.611 68.23 107.729 67.597 116.01 67.856 124.263 M80.812 86.586 C84.312 87.654 87.872 88.526 91.47 89.196 91.64 89.227 91.825 89.257 91.979 89.176 92.213 89.054 92.262 88.747 92.284 88.485 93.832 70.137 99.483 52.147 108.704 36.21 107.535 35.505 105.909 35.668 104.903 36.592 92.455 48.019 82.593 62.247 76.26 77.913 76.094 78.322 75.954 78.851 76.275 79.153 77.855 80.642 78.927 82.661 79.274 84.804 79.337 85.19 79.384 85.599 79.616 85.915 79.892 86.29 80.367 86.45 80.812 86.586 M152.283 139.01 C152.224 138.86 152.089 138.756 151.959 138.66 150.834 137.822 149.708 136.984 148.582 136.146 148.077 135.77 147.464 135.373 146.863 135.561 136.158 138.91 125.007 140.832 113.798 141.263 113.435 141.277 113.173 141.605 112.963 141.902 112.428 142.663 111.893 143.423 111.357 144.184 111.23 144.365 111.098 144.558 111.085 144.779 111.074 144.967 111.151 145.147 111.226 145.319 113.754 151.074 116.747 156.624 120.168 161.897 120.345 162.17 120.554 162.464 120.871 162.535 121.105 162.588 121.345 162.505 121.57 162.423 133.601 158 144.312 150.05 152.029 139.815 152.206 139.58 152.392 139.284 152.283 139.01 M115.518 86.065 C115.722 85.706 115.934 85.302 115.84 84.899 112.612 70.967 112.755 56.266 116.254 42.4 115.966 42.65 115.773 42.989 115.588 43.323 107.574 57.719 102.786 73.9 101.676 90.34 105.476 90.726 109.316 90.714 113.112 90.303 113.914 88.89 114.716 87.478 115.518 86.065 M36.92 118.389 C36.995 119.416 37.309 120.409 37.642 121.382 42.161 134.564 50.925 146.254 62.312 154.287 60.298 146.56 59.033 138.638 58.541 130.668 50.918 127.374 43.654 123.249 36.92 118.389 Z" fill="#000000" fill-opacity="1" stroke="none"/>
</svg>
