<?xml version="1.0" encoding="UTF-8"?>
<svg width="200px" height="200px" viewBox="0 0 200 200" xmlns="http://www.w3.org/2000/svg" xmlns:xlink="http://www.w3.org/1999/xlink" version="1.1">
 <g id="Forme-180">
  <path id="Tracé" d="M46.092 39.918 C48.248 39.151 50.589 39.143 52.878 39.144 84.421 39.158 115.964 39.172 147.507 39.186 149.65 39.187 151.879 39.207 153.806 40.145 157.155 41.775 158.683 45.694 159.383 49.352 119.399 49.351 79.415 49.349 39.431 49.347 39.437 45.246 42.229 41.294 46.092 39.918 Z" fill="#f44336" fill-opacity="1" stroke="none"/>
  <path id="Tracé-1" d="M145.381 29.383 C115.917 29.384 86.454 29.385 56.99 29.386 56.428 29.386 55.866 29.386 55.305 29.386 55.119 29.386 54.921 29.382 54.769 29.275 54.534 29.111 54.508 28.777 54.519 28.491 54.636 25.407 56.569 22.46 59.35 21.124 61.647 20.021 64.294 20 66.842 20 89.186 20.003 111.53 20.006 133.874 20.01 135.703 20.01 137.567 20.015 139.308 20.578 142.956 21.756 145.575 25.555 145.381 29.383 Z" fill="#f44336" fill-opacity="1" stroke="none"/>
  <path id="Tracé-2" d="M29.905 65.691 C35.065 61.262 42.5 61.03 49.3 61.022 81.869 60.98 114.437 60.939 147.006 60.898 155.959 60.886 166.321 61.553 171.575 68.802 175.063 73.613 175.199 79.997 175.2 85.939 175.203 109.335 175.205 132.731 175.208 156.126 175.208 160.89 175.177 165.815 173.256 170.174 171.575 173.991 168.456 177.154 164.663 178.889 160.188 180.936 155.09 180.974 150.169 180.975 116.45 180.984 82.732 180.992 49.014 181 42.075 181.002 34.427 180.741 29.319 176.045 23.645 170.828 23.239 162.164 23.23 154.456 23.205 132.559 23.181 110.662 23.156 88.765 23.147 80.481 23.619 71.087 29.905 65.691 M106.289 131.021 C107.754 130.501 109.156 129.807 110.467 128.972 116.69 125.007 120.578 117.849 121.192 110.496 121.733 104.008 119.798 97.276 115.596 92.304 111.393 87.332 104.907 84.269 98.403 84.552 92.87 84.794 87.528 87.419 83.761 91.478 79.994 95.538 77.791 100.958 77.39 106.481 76.848 113.952 79.71 121.702 85.315 126.67 90.921 131.638 99.231 133.528 106.289 131.021 M141.167 168.528 C138.761 160.935 133.14 154.632 126.456 150.301 116.959 144.147 105.254 141.715 93.992 142.829 86.147 143.604 78.414 146.077 71.848 150.441 65.282 154.804 59.932 161.106 57.162 168.487 85.164 168.59 113.165 168.604 141.167 168.528 Z" fill="#f44336" fill-opacity="1" stroke="none"/>
 </g>
</svg>
