<?xml version="1.0" encoding="UTF-8"?>
<svg width="200px" height="200px" viewBox="0 0 200 200" xmlns="http://www.w3.org/2000/svg" xmlns:xlink="http://www.w3.org/1999/xlink" version="1.1">
 <path id="Plus-copie" d="M82.734 33.475 C82.734 33.475 82.717 25 91.131 25 99.546 25 107.905 25 107.905 25 107.905 25 116.292 25.089 116.292 33.419 116.292 41.749 116.291 83.73 116.291 83.73 L166.613 83.732 C166.613 83.732 175 83.727 175 92.127 175 100.527 175 108.92 175 108.92 175 108.92 175.061 117.305 166.612 117.305 164.297 117.305 116.257 117.304 116.257 117.304 L116.256 167.615 C116.256 167.615 116.306 176 107.868 176 99.431 176 91.127 176 91.127 176 91.127 176 82.74 176.012 82.74 167.614 82.741 159.217 82.742 117.303 82.742 117.303 L32.42 117.301 C32.42 117.301 24 117.307 24 108.85 24 100.394 24.001 92.08 24.001 92.08 24.001 92.08 24.078 83.756 32.428 83.756 40.778 83.756 82.71 83.757 82.71 83.757 Z" fill="#ffffff" fill-opacity="1" stroke="none"/>
</svg>
