<?xml version="1.0" encoding="UTF-8"?>
<svg width="200px" height="200px" viewBox="0 0 200 200" xmlns="http://www.w3.org/2000/svg" xmlns:xlink="http://www.w3.org/1999/xlink" version="1.1">
 <g id="Forme-192">
  <path id="Tracé" d="M42.427 78.349 C44.2 78.269 45.533 79.878 46.558 81.328 50.887 87.447 55.216 93.566 59.544 99.686 60.74 101.376 61.955 103.663 60.772 105.361 59.857 106.674 58.007 106.826 56.407 106.851 53.459 106.898 50.511 106.946 47.563 106.993 50.073 126.632 64.584 144.236 83.383 150.448 102.182 156.66 124.326 151.167 138.042 136.89 139.699 135.165 141.451 133.21 143.822 132.892 146.952 132.471 149.947 135.834 149.168 138.895 148.81 140.298 147.852 141.461 146.885 142.538 130.674 160.596 103.501 167.914 80.415 160.438 57.328 152.962 39.602 131.106 37.053 106.973 34.119 106.911 31.185 106.848 28.251 106.785 27.099 106.761 25.845 106.698 24.976 105.942 23.138 104.343 24.461 101.36 25.867 99.37 30.151 93.311 34.434 87.252 38.717 81.193 39.65 79.873 40.811 78.421 42.427 78.349 Z" fill="#ffffff" fill-opacity="1" stroke="none"/>
  <path id="Tracé-1" d="M139.704 94.496 C140.552 93.795 141.749 93.753 142.85 93.745 146.019 93.721 149.188 93.697 152.357 93.673 149.956 74.169 135.732 56.604 117.154 50.199 98.576 43.795 76.55 48.865 62.641 62.746 61.138 64.245 59.679 65.871 57.765 66.79 55.852 67.709 53.311 67.726 51.837 66.199 50.597 64.915 50.442 62.866 51.021 61.178 51.6 59.49 52.792 58.09 54.012 56.788 70.195 39.525 96.581 32.642 119.134 39.801 141.687 46.961 159.273 67.802 162.536 91.238 162.894 93.811 166.426 94.229 168.998 93.857 171.569 93.485 175.01 93.493 175.81 95.965 176.322 97.549 175.318 99.185 174.361 100.547 170.153 106.536 165.944 112.526 161.736 118.516 160.443 120.356 158.562 122.433 156.384 121.873 155.116 121.548 154.256 120.404 153.501 119.335 149.177 113.217 144.853 107.098 140.53 100.98 139.139 99.012 137.846 96.031 139.704 94.496 Z" fill="#ffffff" fill-opacity="1" stroke="none"/>
 </g>
</svg>
