<?xml version="1.0" encoding="UTF-8"?>
<svg width="200px" height="200px" viewBox="0 0 200 200" xmlns="http://www.w3.org/2000/svg" xmlns:xlink="http://www.w3.org/1999/xlink" version="1.1">
 <g id="Forme-183">
  <path id="Tracé" d="M26.59 96.643 C26.592 93.702 26.619 90.643 27.912 88.001 29.159 85.454 31.512 83.541 34.156 82.516 36.8 81.491 39.716 81.303 42.533 81.626 42.546 103.94 42.558 126.253 42.571 148.567 42.572 150.22 42.568 151.904 42.065 153.478 41.067 156.598 37.972 158.931 34.698 159.005 31.424 159.079 28.215 156.872 27.139 153.779 26.569 152.142 26.564 150.371 26.564 148.638 26.573 131.307 26.582 113.975 26.59 96.643 Z" fill="#05a89d" fill-opacity="1" stroke="none"/>
  <path id="Tracé-1" d="M172.184 145.739 C172.182 151.947 171.954 158.775 167.792 163.381 163.055 168.624 155.093 169 148.026 169 115.03 168.999 82.034 168.998 49.038 168.996 54.221 166.86 55.023 159.98 55.023 154.374 55.021 121.652 55.019 88.929 55.017 56.207 55.017 49.633 55.275 42.371 59.773 37.577 64.649 32.379 72.642 32.022 79.769 32.02 102.342 32.013 124.915 32.007 147.488 32 154.708 31.998 162.84 32.378 167.691 37.726 171.977 42.45 172.21 49.471 172.208 55.849 172.2 85.812 172.192 115.776 172.184 145.739 M81.853 108.239 C79.762 108.819 78.022 110.528 77.406 112.608 77.06 113.776 77.052 115.013 77.047 116.231 77.031 120.45 77.014 124.669 76.997 128.889 76.991 130.457 76.986 132.043 77.35 133.569 77.713 135.095 78.485 136.578 79.758 137.495 81.427 138.696 83.634 138.744 85.69 138.746 90.333 138.749 94.976 138.753 99.619 138.757 100.599 138.757 101.588 138.757 102.544 138.54 104.558 138.083 106.316 136.617 107.128 134.719 107.824 133.088 107.833 131.258 107.831 129.485 107.826 125.288 107.821 121.09 107.815 116.893 107.814 115.325 107.805 113.718 107.253 112.251 106.529 110.325 104.847 108.787 102.864 108.238 101.724 107.922 100.523 107.921 99.34 107.921 94.66 107.923 89.98 107.925 85.299 107.927 84.142 107.927 82.968 107.93 81.853 108.239 M147.375 92.853 C149.021 92.35 150.242 90.699 150.246 88.978 150.249 87.257 149.039 85.603 147.399 85.082 146.599 84.828 145.744 84.825 144.905 84.825 124.074 84.826 103.244 84.827 82.413 84.828 81.547 84.828 80.664 84.831 79.842 85.103 78.233 85.636 77.056 87.268 77.058 88.962 77.06 90.657 78.241 92.286 79.851 92.815 80.667 93.083 81.544 93.086 82.403 93.086 103.267 93.087 124.13 93.088 144.993 93.089 145.794 93.089 146.609 93.087 147.375 92.853 M147.993 70.388 C149.28 69.78 150.185 68.432 150.261 67.011 150.337 65.589 149.58 64.153 148.364 63.412 147.127 62.658 145.596 62.636 144.148 62.636 123.904 62.636 103.66 62.635 83.415 62.635 81.75 62.635 79.955 62.676 78.619 63.67 76.582 65.186 76.744 68.801 78.908 70.129 80.129 70.879 81.646 70.901 83.079 70.901 103.573 70.899 124.066 70.898 144.56 70.896 145.727 70.896 146.938 70.886 147.993 70.388 M147.174 137.509 C148.892 137.092 150.201 135.405 150.215 133.637 150.229 131.869 148.971 130.176 147.286 129.644 146.457 129.383 145.572 129.381 144.703 129.382 136.859 129.387 129.014 129.392 121.17 129.398 120.521 129.398 119.865 129.4 119.233 129.55 116.989 130.087 115.516 132.749 116.255 134.935 116.666 136.15 117.687 137.158 118.927 137.484 119.532 137.643 120.165 137.644 120.79 137.644 128.964 137.648 137.137 137.653 145.311 137.657 145.935 137.657 146.567 137.657 147.174 137.509 M118.826 107.298 C117.158 107.855 115.965 109.593 116.043 111.349 116.121 113.105 117.465 114.73 119.175 115.136 119.793 115.283 120.436 115.284 121.071 115.284 129.108 115.281 137.144 115.279 145.181 115.276 145.82 115.276 146.467 115.275 147.089 115.126 148.807 114.714 150.15 113.073 150.215 111.307 150.28 109.542 149.061 107.806 147.378 107.269 146.576 107.013 145.719 107.011 144.878 107.011 137.061 107.013 129.244 107.015 121.427 107.017 120.551 107.018 119.657 107.021 118.826 107.298 Z" fill="#05a89d" fill-opacity="1" stroke="none"/>
 </g>
</svg>
