<?xml version="1.0" encoding="UTF-8"?>
<svg width="200px" height="200px" viewBox="0 0 200 200" xmlns="http://www.w3.org/2000/svg" xmlns:xlink="http://www.w3.org/1999/xlink" version="1.1">
 <g id="Forme-178">
  <path id="Tracé" d="M59.578 39.024 C63.228 42.242 61.741 48.279 63.679 52.743 97.885 52.738 132.09 52.734 166.295 52.729 168.807 52.729 171.695 52.904 173.22 54.9 174.547 56.637 174.291 59.068 173.971 61.231 172.52 71.03 171.07 80.828 169.62 90.627 168.667 97.061 167.163 104.351 161.549 107.636 158.226 109.581 154.167 109.634 150.316 109.633 124.183 109.629 98.051 109.624 71.918 109.62 71.849 112.321 71.794 115.108 72.781 117.624 73.768 120.139 76.076 122.341 78.778 122.338 102.491 122.318 126.205 122.297 149.918 122.277 151.917 122.275 154.048 122.311 155.713 123.417 158.74 125.426 158.295 130.845 154.981 132.334 153.67 132.922 152.184 132.933 150.747 132.933 127.293 132.942 103.839 132.95 80.385 132.959 76.21 132.96 71.771 132.888 68.268 130.618 63.083 127.259 61.733 120.397 60.842 114.284 57.628 92.244 54.415 70.203 51.201 48.162 44.82 48.127 38.44 48.092 32.059 48.057 30.631 48.049 29.157 48.032 27.848 47.461 24.464 45.986 23.86 40.547 26.837 38.365 28.638 37.045 31.039 36.996 33.271 37 39.334 37.01 45.397 37.02 51.46 37.03 54.312 37.035 57.439 37.138 59.578 39.024 Z" fill="#293077" fill-opacity="1" stroke="none"/>
  <path id="Tracé-1" d="M83.838 143.29 C84.496 143.369 85.147 143.509 85.78 143.708 89.785 144.961 92.882 148.721 93.345 152.892 93.808 157.063 91.611 161.411 87.979 163.512 84.347 165.614 79.483 165.352 76.098 162.872 72.712 160.392 70.996 155.832 71.905 151.736 72.651 148.374 75.093 145.433 78.261 144.083 80.008 143.338 81.952 143.061 83.838 143.29 Z" fill="#293077" fill-opacity="1" stroke="none"/>
  <path id="Tracé-2" d="M133.902 160.657 C131.246 157.143 131.04 151.964 133.408 148.25 135.776 144.536 140.558 142.537 144.864 143.462 149.045 144.36 152.517 147.943 153.283 152.15 153.9 155.54 152.787 159.2 150.388 161.673 147.988 164.146 144.364 165.369 140.957 164.854 139.146 164.581 137.408 163.842 135.956 162.727 135.183 162.133 134.49 161.435 133.902 160.657 Z" fill="#293077" fill-opacity="1" stroke="none"/>
 </g>
</svg>
