<?xml version="1.0" encoding="UTF-8"?>
<svg width="200px" height="200px" viewBox="0 0 200 200" xmlns="http://www.w3.org/2000/svg" xmlns:xlink="http://www.w3.org/1999/xlink" version="1.1">
 <!-- Generated by Pixelmator Pro 1.7 -->
 <path id="Forme-194" d="M99.9 119.705 C117.358 101.806 134.817 83.907 152.276 66.008 154.013 64.227 155.84 62.387 158.192 61.575 161.004 60.604 164.337 61.361 166.452 63.453 168.567 65.544 169.363 68.868 168.424 71.69 167.656 73.998 165.9 75.818 164.197 77.554 145.161 96.955 126.126 116.355 107.091 135.756 105.18 137.704 102.998 139.779 100.273 139.915 97.182 140.069 94.614 137.693 92.447 135.483 73.722 116.387 54.997 97.291 36.271 78.196 34.108 75.99 31.845 73.599 31.262 70.566 30.741 67.856 31.763 64.902 33.847 63.094 35.932 61.285 39 60.69 41.609 61.589 43.92 62.384 45.719 64.185 47.43 65.929 64.967 83.808 82.457 101.734 99.9 119.705 Z" fill="#8c949f" fill-opacity="1" stroke="none"/>
</svg>
