<?xml version="1.0" encoding="UTF-8"?>
<svg width="200px" height="200px" viewBox="0 0 200 200" xmlns="http://www.w3.org/2000/svg" xmlns:xlink="http://www.w3.org/1999/xlink" version="1.1">
 <path id="Forme-191" d="M157.071 131.054 C155.882 133.096 154.894 135.163 153.53 137.002 153.258 137.369 153.422 137.72 153.611 138.024 154.421 139.329 155.286 140.6 156.075 141.917 156.794 143.118 157.688 144.221 158.072 145.616 158.287 146.396 158.272 147.087 157.935 147.837 157.492 148.822 156.887 149.632 155.954 150.175 155.078 150.686 154.175 150.856 153.152 150.559 151.799 150.166 150.572 149.498 149.28 148.974 148.071 148.484 146.875 147.96 145.659 147.488 145.235 147.323 144.854 147.408 144.472 147.77 143.264 148.916 142.031 150.04 140.753 151.107 139.889 151.827 138.936 152.439 138.016 153.091 137.466 153.482 137.3 153.877 137.431 154.465 137.756 155.936 138.066 157.411 138.389 158.883 138.538 159.558 138.771 160.221 138.846 160.903 138.947 161.813 139.144 162.792 138.915 163.637 138.585 164.854 137.775 165.896 136.479 166.286 134.845 166.778 133.351 166.581 132.048 165.286 130.572 163.819 128.993 162.457 127.452 161.055 127.346 160.958 127.131 160.95 127.068 160.841 126.463 159.81 125.677 160.285 124.94 160.592 122.939 161.427 120.947 162.287 118.841 162.837 118.379 162.957 117.922 163.097 117.469 163.244 116.913 163.425 116.674 163.775 116.621 164.399 116.513 165.68 116.324 166.947 116.057 168.207 115.924 168.84 115.927 169.5 115.85 170.146 115.774 170.785 115.76 171.448 115.569 172.053 115.056 173.677 114.096 174.762 112.24 175.004 110.778 175.194 109.656 174.752 108.64 173.813 108.49 173.674 108.394 173.47 108.297 173.284 107.589 171.941 106.895 170.59 106.181 169.25 105.649 168.249 105.069 167.273 104.564 166.259 104.392 165.914 104.131 165.728 103.829 165.743 103.311 165.77 102.767 165.543 102.26 165.9 102.109 166.006 101.822 165.916 101.597 165.916 99.992 165.916 98.387 165.936 96.783 165.908 96.038 165.895 95.295 165.786 94.551 165.725 94.2 165.696 94.043 165.841 93.875 166.19 93.218 167.558 92.501 168.899 91.771 170.23 91.167 171.332 90.443 172.373 89.905 173.504 89.497 174.363 88.707 174.652 87.992 174.931 86.955 175.337 85.844 175.302 84.823 174.668 83.602 173.909 82.871 172.875 82.71 171.412 82.587 170.296 82.325 169.197 82.152 168.086 82.057 167.476 82.016 166.856 81.954 166.241 81.888 165.594 81.834 164.945 81.758 164.299 81.686 163.68 81.286 163.387 80.714 163.212 79.549 162.855 78.389 162.476 77.242 162.063 76.071 161.641 74.918 161.166 73.756 160.717 73.562 160.643 73.329 160.632 73.167 160.516 72.249 159.857 71.606 160.425 70.985 161.002 69.729 162.169 68.507 163.374 67.242 164.532 66.652 165.072 66.002 165.549 65.36 166.03 65.151 166.186 64.892 166.316 64.638 166.368 63.594 166.581 62.504 166.711 61.548 166.18 60.634 165.672 59.861 164.982 59.552 163.861 59.278 162.869 59.306 161.908 59.496 160.932 59.71 159.837 59.956 158.749 60.189 157.657 60.41 156.625 60.608 155.588 60.86 154.564 61.066 153.73 61.001 153.54 60.332 153.049 59.244 152.252 58.154 151.453 57.114 150.595 55.978 149.657 54.881 148.67 53.804 147.665 53.46 147.344 53.076 147.341 52.758 147.466 51.49 147.968 50.255 148.551 48.997 149.079 47.711 149.617 46.442 150.222 45.113 150.62 43.894 150.985 42.742 150.571 41.793 149.727 40.707 148.761 40.012 147.615 40.145 146.073 40.199 145.439 40.478 144.916 40.781 144.408 42.055 142.268 43.345 140.137 44.665 138.025 44.966 137.544 44.916 137.212 44.625 136.751 43.858 135.537 43.141 134.29 42.437 133.037 41.721 131.764 41.016 130.483 40.368 129.175 40.191 128.817 40.004 128.728 39.659 128.74 37.76 128.81 35.855 128.807 33.965 128.97 33.286 129.028 32.604 129.078 31.924 129.136 30.453 129.261 28.551 128.123 28.018 126.243 27.588 124.724 27.826 123.364 29.007 122.29 30.038 121.353 31.151 120.506 32.231 119.625 33.238 118.804 34.258 118 35.254 117.167 35.541 116.927 35.744 116.737 35.578 116.182 35.13 114.684 34.84 113.131 34.588 111.584 34.38 110.302 34.299 108.998 34.193 107.701 34.134 106.977 34.047 106.842 33.281 106.592 31.386 105.973 29.496 105.345 27.601 104.729 27.062 104.554 26.486 104.47 25.975 104.238 24.678 103.649 23.891 102.658 23.575 101.227 23.238 99.7 23.718 98.457 24.78 97.46 25.305 96.968 26.043 96.655 26.735 96.402 28.048 95.921 29.396 95.538 30.732 95.123 31.472 94.893 32.209 94.644 32.963 94.467 33.949 94.237 34.136 93.991 34.196 92.979 34.297 91.3 34.561 89.646 34.924 87.995 35.17 86.877 35.297 85.738 35.709 84.655 35.778 84.474 35.68 84.106 35.53 83.984 34.506 83.15 33.437 82.373 32.405 81.55 31.242 80.624 30.09 79.682 28.954 78.722 27.831 77.773 27.547 75.799 28.122 74.4 28.847 72.636 30.202 71.982 31.972 71.928 32.774 71.903 33.599 71.803 34.375 71.948 36.052 72.261 37.731 72.011 39.402 72.126 39.982 72.165 40.313 71.975 40.551 71.437 41.668 68.914 43.125 66.58 44.586 64.249 44.616 64.2 44.604 64.124 44.636 64.078 45.115 63.406 45.092 63.346 44.612 62.599 43.244 60.472 41.829 58.372 40.568 56.182 39.77 54.797 39.992 53.349 41.097 52.032 41.453 51.608 41.919 51.266 42.37 50.934 43.597 50.032 44.899 50.221 46.204 50.738 48.464 51.635 50.735 52.509 52.965 53.476 53.357 53.646 53.445 53.512 53.648 53.331 54.773 52.33 55.879 51.306 57.035 50.341 58.217 49.354 59.425 48.395 60.68 47.504 60.909 47.341 60.986 47.24 60.953 47.038 60.823 46.23 60.686 45.421 60.518 44.619 60.297 43.559 60.043 42.506 59.804 41.45 59.611 40.598 59.428 39.745 59.228 38.895 58.971 37.805 59.901 35.716 60.953 35.142 61.748 34.709 62.549 34.281 63.519 34.356 64.4 34.424 65.175 34.703 65.831 35.29 67.12 36.444 68.403 37.605 69.69 38.761 70.274 39.286 70.857 39.812 71.45 40.325 71.833 40.657 72.197 40.819 72.755 40.545 74.996 39.443 77.393 38.725 79.732 37.868 80.171 37.707 80.652 37.65 81.111 37.479 81.56 37.312 81.661 36.96 81.736 36.665 81.885 36.071 81.867 35.437 81.958 34.826 82.128 33.681 82.334 32.541 82.51 31.397 82.599 30.819 82.674 30.238 82.721 29.655 82.951 26.768 86.083 24.787 88.971 26.499 89.56 26.848 90.062 27.487 90.395 28.105 91.564 30.278 92.639 32.501 93.755 34.703 93.889 34.967 94.039 35.152 94.424 35.149 97.538 35.124 100.651 35.132 103.764 35.139 104.144 35.14 104.334 35.047 104.527 34.649 105.369 32.907 106.281 31.2 107.19 29.492 107.611 28.7 108.071 27.928 108.538 27.161 108.895 26.574 109.56 26.377 110.129 26.154 112.757 25.121 115.436 27.001 115.675 29.651 115.776 30.767 116.055 31.867 116.234 32.977 116.322 33.524 116.371 34.078 116.429 34.63 116.498 35.277 116.55 35.926 116.626 36.572 116.693 37.148 117.072 37.468 117.588 37.637 119.369 38.22 121.162 38.77 122.933 39.383 123.884 39.712 124.837 40.074 125.718 40.553 126.274 40.856 126.598 40.608 126.927 40.321 127.784 39.574 128.597 38.777 129.443 38.017 130.539 37.032 131.635 36.045 132.758 35.092 133.884 34.136 135.837 34.113 137.196 35.006 138.378 35.782 138.935 36.854 138.992 38.299 139.051 39.782 138.582 41.154 138.35 42.574 138.166 43.701 137.959 44.841 137.592 45.917 137.203 47.055 137.737 47.55 138.566 48.167 140.314 49.465 142.065 50.775 143.583 52.357 143.88 52.667 144.336 52.85 144.567 53.193 144.927 53.729 145.372 53.571 145.762 53.42 147.53 52.732 149.277 51.989 151.039 51.284 152.008 50.897 152.931 50.401 154.022 50.331 154.844 50.278 155.594 50.512 156.17 50.956 157.368 51.881 158.329 53.003 158.24 54.701 158.194 55.572 157.723 56.243 157.313 56.918 156.187 58.773 154.972 60.573 153.8 62.401 153.657 62.624 153.518 62.87 153.464 63.124 153.416 63.348 153.411 63.645 153.521 63.827 154.269 65.063 155.1 66.25 155.81 67.506 156.482 68.694 157.062 69.937 157.64 71.176 157.946 71.833 158.317 72.188 159.123 72.137 160.402 72.057 161.7 72.221 162.97 72.086 164.167 71.957 165.356 71.938 166.552 71.922 168.115 71.901 169.791 72.893 170.368 74.69 170.91 76.377 170.284 78.359 168.75 79.265 167.932 79.748 167.259 80.472 166.507 81.07 165.327 82.009 164.134 82.933 162.948 83.866 162.713 84.051 162.586 84.247 162.697 84.592 163.133 85.943 163.366 87.342 163.633 88.734 163.893 90.092 164.198 91.437 164.206 92.83 164.208 93.125 164.361 93.417 164.381 93.714 164.404 94.052 164.547 94.182 164.87 94.276 166.787 94.834 168.703 95.398 170.603 96.011 171.391 96.264 172.159 96.6 172.9 96.97 175.505 98.272 175.766 101.946 173.299 103.703 172.28 104.429 171.056 104.652 169.905 105.038 168.211 105.607 166.482 106.074 164.774 106.603 164.624 106.65 164.431 106.821 164.405 106.962 164.304 107.506 164.276 108.063 164.194 108.612 164.024 109.758 163.82 110.9 163.659 112.047 163.453 113.513 163.121 114.946 162.673 116.357 162.624 116.511 162.757 116.791 162.892 116.922 163.387 117.4 163.903 117.86 164.441 118.289 165.595 119.211 166.773 120.101 167.928 121.021 168.442 121.429 168.953 121.849 169.411 122.317 170.428 123.351 170.801 124.537 170.378 126.002 169.799 128.004 168.453 129.153 166.417 129.12 164.774 129.094 163.12 129.099 161.494 128.897 160.582 128.783 159.682 128.795 158.777 128.74 158.256 128.708 158.003 128.95 157.827 129.432 157.633 129.962 157.328 130.451 157.071 131.054 M94.28 118.438 C94.031 118.817 93.77 119.188 93.533 119.574 92.53 121.212 91.534 122.853 90.536 124.494 89.741 125.801 88.946 127.108 88.154 128.418 87.177 130.034 86.206 131.655 85.226 133.27 84.415 134.604 83.595 135.933 82.776 137.261 81.734 138.949 80.682 140.629 79.647 142.32 78.865 143.599 78.103 144.89 77.33 146.174 76.742 147.15 76.171 148.138 75.549 149.092 75.348 149.402 75.354 149.433 75.707 149.58 77.294 150.244 78.825 151.051 80.435 151.645 83.503 152.776 86.672 153.574 89.888 154.154 91.399 154.426 92.931 154.6 94.462 154.729 95.618 154.827 96.781 154.789 97.946 154.898 99.057 155.002 100.193 154.983 101.336 154.783 102.628 154.556 103.972 154.626 105.293 154.549 106.005 154.506 106.725 154.475 107.425 154.348 108.61 154.133 109.784 153.856 110.959 153.587 112.218 153.299 113.488 153.047 114.724 152.68 116.973 152.011 119.154 151.165 121.307 150.21 123.359 149.299 125.343 148.275 127.227 147.086 129.156 145.868 131.046 144.58 132.822 143.121 134.173 142.01 135.524 140.898 136.766 139.675 137.951 138.508 139.025 137.227 140.111 135.964 140.915 135.028 141.681 134.057 142.428 133.074 143.797 131.27 145.003 129.354 146.081 127.367 147.583 124.597 148.898 121.737 149.85 118.724 150.227 117.531 150.691 116.37 150.963 115.137 151.216 113.989 151.482 112.846 151.72 111.693 152.042 110.135 152.333 108.581 152.452 106.995 152.467 106.786 152.517 106.576 152.575 106.373 152.844 105.428 152.708 105.245 151.719 105.245 140.262 105.245 128.804 105.245 117.347 105.245 117.187 105.245 117.026 105.252 116.866 105.243 116.554 105.226 116.331 105.298 116.227 105.649 116.153 105.901 115.952 106.113 115.857 106.361 115.05 108.472 114.083 110.523 112.591 112.218 110.789 114.267 108.804 116.107 106.206 117.221 104.591 117.914 102.964 118.509 101.242 118.694 99.751 118.854 98.229 118.728 96.72 118.725 96.63 118.725 96.537 118.707 96.451 118.681 95.774 118.476 95.093 118.302 94.28 118.438 M85.42 67.782 C85.934 68.661 86.456 69.534 86.96 70.419 87.994 72.235 89.001 74.068 90.053 75.875 91.38 78.152 92.767 80.395 94.067 82.688 94.329 83.151 94.631 83.153 94.979 83.057 96.105 82.744 97.249 82.567 98.412 82.522 99.785 82.468 101.133 82.606 102.493 82.877 104.582 83.293 106.471 84.115 108.265 85.226 109.77 86.158 111.075 87.329 112.225 88.65 113.037 89.582 113.763 90.593 114.38 91.692 115.009 92.814 115.581 93.949 116.061 95.139 116.184 95.442 116.354 95.636 116.804 95.635 128.548 95.609 140.293 95.615 152.037 95.613 152.677 95.613 152.737 95.542 152.639 94.911 152.518 94.128 152.368 93.35 152.259 92.567 152.115 91.531 152.073 90.476 151.854 89.457 151.458 87.611 151.056 85.757 150.489 83.959 149.794 81.755 149.022 79.56 147.997 77.486 147.048 75.564 146.085 73.65 144.973 71.799 143.136 68.741 141.011 65.913 138.647 63.271 137.166 61.615 135.478 60.141 133.839 58.633 133.143 57.992 132.322 57.49 131.581 56.896 130.347 55.906 129.057 54.997 127.691 54.199 126.478 53.489 125.255 52.797 124.044 52.083 122.219 51.008 120.245 50.251 118.296 49.459 116.839 48.867 115.296 48.484 113.779 48.047 112.6 47.707 111.41 47.399 110.213 47.131 109.353 46.938 108.475 46.815 107.601 46.698 106.893 46.603 106.159 46.645 105.471 46.481 104.281 46.196 103.061 46.172 101.872 46.153 99.559 46.116 97.241 45.981 94.921 46.275 93.729 46.427 92.525 46.532 91.327 46.661 89.774 46.829 88.254 47.131 86.743 47.477 85.026 47.872 83.306 48.299 81.64 48.866 79.903 49.458 78.228 50.231 76.529 50.931 76.072 51.119 75.93 51.49 76.18 51.931 76.741 52.921 77.335 53.891 77.904 54.876 78.412 55.755 78.897 56.648 79.405 57.527 80.184 58.874 80.972 60.216 81.762 61.557 82.355 62.563 82.965 63.56 83.552 64.57 84.153 65.603 84.734 66.647 85.42 67.782 M82.724 82.421 C82.61 82.243 82.489 82.069 82.384 81.886 81.451 80.25 80.535 78.605 79.586 76.979 78.906 75.812 78.171 74.677 77.483 73.515 76.522 71.893 75.583 70.258 74.634 68.629 73.881 67.335 73.136 66.038 72.37 64.752 71.404 63.128 70.411 61.52 69.448 59.894 68.839 58.866 68.274 57.811 67.668 56.781 67.503 56.499 67.317 56.438 66.994 56.717 65.49 58.015 63.9 59.217 62.435 60.557 60.921 61.942 59.499 63.427 58.263 65.078 57.378 66.26 56.405 67.378 55.554 68.583 54.218 70.473 52.958 72.417 51.911 74.487 51.349 75.6 50.809 76.726 50.307 77.867 49.783 79.061 49.258 80.261 48.838 81.495 48.046 83.817 47.239 86.137 46.882 88.586 46.7 89.839 46.35 91.067 46.139 92.317 45.96 93.378 45.84 94.453 45.752 95.527 45.651 96.749 45.558 97.977 45.566 99.202 45.574 100.523 45.46 101.843 45.713 103.173 45.905 104.178 45.688 105.232 45.915 106.27 46.138 107.287 46.168 108.345 46.327 109.379 46.562 110.913 46.673 112.492 47.131 113.96 47.742 115.916 48.212 117.913 48.979 119.834 49.928 122.211 50.855 124.582 52.092 126.829 53.242 128.918 54.53 130.908 55.886 132.873 57.483 135.189 59.349 137.257 61.248 139.301 62.225 140.352 63.386 141.233 64.477 142.175 65.205 142.803 65.962 143.398 66.696 144.02 66.923 144.212 66.966 144.225 67.143 143.912 67.763 142.813 68.471 141.764 69.137 140.691 70.072 139.185 71.003 137.677 71.929 136.165 72.729 134.86 73.515 133.547 74.315 132.242 75.445 130.398 76.587 128.562 77.714 126.716 78.496 125.437 79.256 124.144 80.035 122.863 80.926 121.401 81.823 119.943 82.725 118.488 83.707 116.903 84.686 115.316 85.691 113.747 86.191 112.966 86.213 112.986 85.61 112.266 85.475 112.106 85.4 111.896 85.263 111.738 83.967 110.242 82.912 108.608 82.125 106.777 81.561 105.463 81.11 104.107 81.034 102.718 80.945 101.087 80.831 99.433 81.165 97.789 81.423 96.518 81.808 95.312 82.326 94.124 83.092 92.368 84.078 90.755 85.303 89.294 86.131 88.307 86.169 88.332 85.608 87.237 85.499 87.023 85.327 86.841 85.206 86.633 84.407 85.263 83.615 83.889 82.724 82.421 M103.622 93.881 C103.535 93.858 103.437 93.855 103.363 93.81 101.419 92.634 99.331 92.449 97.156 92.921 94.578 93.479 92.712 95.01 91.615 97.356 91.025 98.618 90.695 99.98 90.959 101.474 91.119 102.38 91.287 103.255 91.675 104.075 92.496 105.808 93.854 107.021 95.504 107.943 97.142 108.858 98.926 109.005 100.699 108.683 102.836 108.296 104.53 107.047 105.824 105.333 107.226 103.476 107.437 101.268 107.147 99.073 106.911 97.28 105.876 95.804 104.521 94.592 104.27 94.368 103.987 94.181 103.622 93.881 Z" fill="#8c949f" fill-opacity="1" stroke="none"/>
</svg>
