<?xml version="1.0" encoding="UTF-8"?>
<svg width="200px" height="200px" viewBox="0 0 200 200" xmlns="http://www.w3.org/2000/svg" xmlns:xlink="http://www.w3.org/1999/xlink" version="1.1">s
 <path id="Forme-187" d="M143.828 33.005 L157.395 33.006 C159.979 33.006 162.773 33.074 164.82 34.651 167.671 36.848 167.921 40.98 167.922 44.578 167.936 73.56 167.949 102.543 167.962 131.525 167.963 134.525 167.92 137.694 166.374 140.266 164.88 142.752 162.004 144.345 159.103 144.292 156.203 144.24 153.387 142.544 151.983 140.005 150.66 137.613 150.597 134.751 150.576 132.018 150.39 107.767 151.037 83.51 152.513 59.303 119.227 94.747 84.613 128.917 50.009 163.077 48.17 164.892 46.235 166.768 43.775 167.559 40.891 168.487 37.519 167.674 35.376 165.534 33.232 163.394 32.414 160.023 33.337 157.138 34.135 154.647 36.042 152.693 37.888 150.839 58.921 129.709 79.953 108.58 100.986 87.45 114.305 74.069 127.644 60.67 142.06 48.479 117.976 49.556 93.874 50.218 69.767 50.463 66.575 50.495 63.18 50.465 60.487 48.752 55.678 45.694 55.852 37.354 60.785 34.5 63.309 33.039 66.38 33 69.297 33 94.14 33.002 118.984 33.004 143.828 33.005 Z" fill="#6fcc43" fill-opacity="1" stroke="none"/>
</svg>
